<svg width="24" height="24" viewBox="0 0 24 24" fill="none" xmlns="http://www.w3.org/2000/svg">
<path d="M16.168 1.92188L12.3848 9.02539C10.7449 9.14892 9.50737 9.76419 8.70312 10.6836C7.80073 11.7152 7.43684 12.985 7.15625 14.1816C6.87566 15.3782 6.67306 16.535 6.31641 17.3887C5.97764 18.1996 5.5853 18.6988 4.79688 19H2V21H4.98828H5C8.4745 21 11.5732 21.0595 14.0312 19.9062C15.2603 19.3296 16.3092 18.4001 16.9902 17.084C17.6393 15.8296 17.9588 14.2483 17.9883 12.2812L22.0625 5.0332L21.1543 4.55273L16.168 1.92188ZM16.998 4.62109L19.3125 5.8418L16.5957 10.6797L14.3652 9.56445L16.998 4.62109ZM12.793 11.0156L15.9746 12.6055C15.9146 14.1712 15.6426 15.3394 15.2148 16.166C14.7316 17.0999 14.084 17.6704 13.1816 18.0938C11.8881 18.7007 9.89965 18.8581 7.67188 18.9238C7.83068 18.6646 8.04887 18.4312 8.16211 18.1602C8.65037 16.9914 8.84398 15.7455 9.10352 14.6387C9.36305 13.5319 9.68427 12.5976 10.207 12C10.7031 11.4329 11.4012 11.054 12.793 11.0156Z" fill="#4C37EE"/>
</svg>
