<svg width="24" height="24" viewBox="0 0 24 24" fill="none" xmlns="http://www.w3.org/2000/svg">
<path d="M3 5V15C3.726 15 4.37323 14.8391 4.99023 14.5391L5 7.3125C5.715 7.5405 6.376 7.88441 7 8.31641V13.0898C7.63 12.4998 8.28 11.7699 9 10.9199V10.0645C9.57719 10.666 10.1361 11.3282 10.6973 12.002C10.1379 12.6812 9.57939 13.3303 9 13.9297C8.37 14.5997 7.71 15.1995 7 15.6895C6.38 16.1195 5.72 16.4695 5 16.6895C4.38 16.8895 3.72 17 3 17V19C7.07 19 9.64 16.3803 12 13.5703C11.74 13.2603 11.4905 12.9506 11.2305 12.6406C13.8106 15.7686 16.4806 19 21 19V17C17.422 17 15.1635 14.2613 12.7715 11.3633C10.1905 8.23428 7.521 5 3 5ZM21 5C17.67 5 15.3501 6.74992 13.3301 8.91992C13.6701 9.30992 13.9905 9.69984 14.3105 10.0898C14.4205 10.2198 14.5191 10.3507 14.6191 10.4707C14.7491 10.3307 14.87 10.2003 15 10.0703V10.9199C15.72 11.7699 16.37 12.4998 17 13.0898V8.31055C17.63 7.88055 18.2898 7.53055 19.0098 7.31055L19 14.5508C19.617 14.8408 20.2642 15 20.9902 15L21 5Z" fill="#4C37EE"/>
</svg>
