<svg width="24" height="24" viewBox="0 0 24 24" fill="none" xmlns="http://www.w3.org/2000/svg">
<path d="M8 3V5H9V10L3.43164 17.7734C3.16564 18.1124 3 18.535 3 19C3 20.105 3.895 21 5 21H19C20.105 21 21 20.105 21 19C21 18.535 20.8344 18.1124 20.5684 17.7734L15 10V5H16V3H8ZM11 5H13V9H11V5ZM10.7441 11H13.2559L18.9434 18.9375L18.9727 18.9668L19 19L5.00586 19.0078L5.03125 18.9727L5.05664 18.9375L10.7441 11ZM13 13C12.7348 13 12.4804 13.1054 12.2929 13.2929C12.1054 13.4804 12 13.7348 12 14C12 14.2652 12.1054 14.5196 12.2929 14.7071C12.4804 14.8946 12.7348 15 13 15C13.2652 15 13.5196 14.8946 13.7071 14.7071C13.8946 14.5196 14 14.2652 14 14C14 13.7348 13.8946 13.4804 13.7071 13.2929C13.5196 13.1054 13.2652 13 13 13ZM10.5 15C10.1022 15 9.72064 15.158 9.43934 15.4393C9.15804 15.7206 9 16.1022 9 16.5C9 16.8978 9.15804 17.2794 9.43934 17.5607C9.72064 17.842 10.1022 18 10.5 18C10.8978 18 11.2794 17.842 11.5607 17.5607C11.842 17.2794 12 16.8978 12 16.5C12 16.1022 11.842 15.7206 11.5607 15.4393C11.2794 15.158 10.8978 15 10.5 15Z" fill="#4C37EE"/>
</svg>
