<svg width="24" height="24" viewBox="0 0 24 24" fill="none" xmlns="http://www.w3.org/2000/svg">
<path d="M20 3V4H10C5.59356 4 2 7.59356 2 12C2 14.388 3.06033 16.5321 4.72852 18H3V20H10H17V18H15.2715C16.9397 16.5321 18 14.388 18 12C18 11.3092 17.9036 10.6412 17.7383 10H20V11H22V3H20ZM10 6H20V8H10C7.80271 8 6 9.80271 6 12C6 14.1973 7.80271 16 10 16C12.1973 16 14 14.1973 14 12C14 11.2693 13.7864 10.5916 13.4395 10H15.6543C15.8756 10.6249 16 11.2958 16 12C16 15.3256 13.3256 18 10 18C6.67444 18 4 15.3256 4 12C4 8.67444 6.67444 6 10 6ZM10 10C11.1164 10 12 10.8836 12 12C12 13.1164 11.1164 14 10 14C8.88359 14 8 13.1164 8 12C8 10.8836 8.88359 10 10 10Z" fill="#4C37EE"/>
</svg>
