<svg width="24" height="24" viewBox="0 0 24 24" fill="none" xmlns="http://www.w3.org/2000/svg">
<path d="M8.96875 2.93555L3.62891 5.07227C3.24891 5.22427 3 5.591 3 6V20C3 20.707 3.71409 21.1907 4.37109 20.9277L9.03125 19.0645L15.0312 21.0645L20.3711 18.9277C20.7511 18.7757 21 18.409 21 18V4C21 3.293 20.2859 2.80927 19.6289 3.07227L14.9688 4.93555L8.96875 2.93555ZM10 5.38672L14 6.7207V18.6133L10 17.2793V5.38672ZM8 5.47656V17.3223L5 18.5234V6.67773L8 5.47656ZM19 5.47656V17.3223L16 18.5234V6.67773L19 5.47656Z" fill="#4C37EE"/>
</svg>
