<svg width="24" height="24" viewBox="0 0 24 24" fill="none" xmlns="http://www.w3.org/2000/svg">
<path d="M7.5 3C4.462 3 2 5.462 2 8.5C2 12.671 6.91225 16.7132 8.28125 17.9902C9.85825 19.4602 12 21.3496 12 21.3496C12 21.3496 14.1418 19.4602 15.7188 17.9902C17.0877 16.7132 22 12.671 22 8.5C22 5.462 19.538 3 16.5 3C13.605 3 12 5.08984 12 5.08984C12 5.08984 10.395 3 7.5 3ZM7.5 5C9.327 5 10.3861 6.27559 10.4141 6.30859L12 8L13.5859 6.30859C13.5959 6.29559 14.673 5 16.5 5C17.1008 5 17.6578 5.16582 18.1523 5.43359L12 11.5859L8.70703 8.29297L7.29297 9.70703L12 14.4141L19.5664 6.84766C19.8342 7.34218 20 7.89921 20 8.5C20 11.419 16.2305 14.8264 14.8105 16.1094C14.6335 16.2694 14.4805 16.4084 14.3555 16.5254C13.6045 17.2254 12.716 18.0299 12 18.6719C11.284 18.0299 10.3945 17.2244 9.64453 16.5254C9.51853 16.4084 9.36545 16.2684 9.18945 16.1094C7.76945 14.8264 4 11.419 4 8.5C4 6.57 5.57 5 7.5 5Z" fill="#4C37EE"/>
</svg>
