<svg width="24" height="24" viewBox="0 0 24 24" fill="none" xmlns="http://www.w3.org/2000/svg">
<path d="M3 2V5V18.5C3 20.3131 4.21988 22 6 22H19C20.7801 22 22 20.3131 22 18.5C22 16.6869 20.7801 15 19 15V4V2H16C16 2.552 15.552 3 15 3C14.448 3 14 2.552 14 2H12C12 2.552 11.552 3 11 3C10.448 3 10 2.552 10 2H8C8 2.552 7.552 3 7 3C6.448 3 6 2.552 6 2H3ZM5 5H17V15H6C5.63967 15 5.30895 15.0837 5 15.209V5ZM7 7V9H15V7H7ZM7 11V13H12V11H7ZM6 17C6.42902 17 7 17.5516 7 18.5C7 19.4484 6.42902 20 6 20C5.57098 20 5 19.4484 5 18.5C5 17.5516 5.57098 17 6 17ZM8.69922 17H19C19.4299 17 20 17.5511 20 18.5C20 19.4489 19.4299 20 19 20H8.69922C8.88773 19.5341 9 19.0249 9 18.5C9 17.9751 8.88773 17.4659 8.69922 17Z" fill="#4C37EE"/>
</svg>
