<svg width="24" height="24" viewBox="0 0 24 24" fill="none" xmlns="http://www.w3.org/2000/svg">
<path d="M16.4316 1.98242L15.0176 3.39648L17.1094 5.48828L14.9609 7.63672L11.9551 4.63281L4.03125 12.5449L4.00195 18.5957L1.97461 20.623L3.38867 22.0371L5.42578 20H11.4141L11.707 19.707L19.3691 12.0469L16.375 9.05273L18.5234 6.90234L20.6035 8.98242L22.0176 7.56836L16.4316 1.98242ZM11.9531 7.45898L16.5391 12.0469L14.9844 13.6016L12.7363 11.3516L11.3223 12.7656L13.5703 15.0156L12 16.5859L9.70703 14.293L8.29297 15.707L10.584 18H6.00391L6.02734 13.3789L11.9531 7.45898Z" fill="#4C37EE"/>
</svg>
