<svg width="24" height="24" viewBox="0 0 24 24" fill="none" xmlns="http://www.w3.org/2000/svg">
<path d="M12 2C10.25 2 8.77083 3.61945 7.88083 6.18945C8.03083 6.07945 8.18958 5.98086 8.34958 5.88086C9.29958 5.29086 10.2607 4.77938 11.2207 4.35938C11.4907 4.11937 11.76 4 12 4C12.02 4 12.0503 3.99977 12.0703 4.00977C12.5703 4.04977 13.1599 4.60031 13.6699 5.57031C13.6735 5.57721 13.676 5.58681 13.6797 5.59375C12.3529 6.01349 10.9602 6.64478 9.58005 7.48438C9.58038 7.48322 9.57972 7.48162 9.58005 7.48047C9.53709 7.50195 9.499 7.52759 9.45895 7.55273C9.44226 7.56304 9.42486 7.56972 9.40817 7.58008C9.05086 7.80331 8.71085 8.03334 8.37887 8.26758C8.26296 8.34965 8.15158 8.43238 8.03903 8.51562C7.80241 8.68975 7.57365 8.8663 7.35153 9.04492C7.29937 9.08694 7.24076 9.12777 7.18942 9.16992C7.18908 9.17242 7.18976 9.17523 7.18942 9.17773C3.79122 11.9712 2.18709 15.2273 3.40622 17.3301C3.83622 18.0701 4.57756 18.5898 5.55856 18.8398C6.00856 18.9498 6.48778 19 7.00778 19C7.42254 19 7.86484 18.9613 8.32223 18.8945C8.65183 19.6128 9.04128 20.2316 9.48044 20.7207C10.2104 21.5407 11.07 22 12 22C13.75 22 15.2291 20.3805 16.1191 17.8105C16.4291 16.9205 16.6605 15.9201 16.8105 14.8301C16.8109 14.8276 16.8102 14.8248 16.8105 14.8223C20.2093 12.0288 21.8128 8.77273 20.5937 6.66992C20.1637 5.92992 19.4224 5.41016 18.4414 5.16016C18.2114 5.10016 17.9824 5.05906 17.7324 5.03906C18.0224 5.73906 18.2611 6.48906 18.4511 7.28906C18.6411 7.39906 18.7713 7.52969 18.8613 7.67969C19.3371 8.50151 18.5613 10.4127 16.498 12.4141C16.3961 12.5135 16.3021 12.6112 16.1933 12.7109C15.9029 12.9768 15.5788 13.2427 15.2422 13.5078C15.1483 13.5812 15.068 13.6556 14.9707 13.7285C14.5269 14.0639 14.0483 14.3971 13.5293 14.7207C12.7793 15.1907 12.0496 15.5706 11.3496 15.8906C11.5496 16.8306 11.7885 17.4805 11.9785 17.8105C12.7824 17.4553 13.6054 17.0157 14.4199 16.5195C13.9899 18.0295 13.379 19.0991 12.789 19.6191C12.519 19.8691 12.25 20 12 20C11.97 20 11.9401 20.0005 11.9101 19.9805C11.4101 19.9305 10.84 19.3797 10.33 18.4297C10.06 17.9197 9.79981 17.2908 9.58981 16.5508C9.41981 15.9608 9.27966 15.3001 9.17966 14.5801C9.09966 14.0501 9.04927 13.4809 9.02927 12.8809C9.00927 12.6009 8.99997 12.3 8.99997 12C8.99997 11.3814 9.03024 10.7933 9.08005 10.2344C9.51044 9.91148 9.96847 9.59102 10.4687 9.2793C11.8879 8.39268 13.2244 7.82277 14.416 7.46289C14.5734 8.02758 14.7118 8.66838 14.8105 9.35938C14.9005 9.92938 14.9604 10.5395 14.9804 11.1895C15.7804 10.4995 16.41 9.84031 16.83 9.32031C16.81 9.14031 16.78 8.97078 16.75 8.80078C16.66 8.18078 16.5291 7.5893 16.3691 7.0293C16.1791 6.3293 15.9497 5.68937 15.6797 5.10938C15.3497 4.38937 14.9595 3.7693 14.5195 3.2793C13.7895 2.4593 12.93 2 12 2ZM6.99997 12.0859C7.0104 13.8797 7.23096 15.5346 7.62887 16.9609C7.00006 17.0213 6.45975 17.0018 6.0488 16.9004C5.5988 16.7804 5.28864 16.5903 5.13864 16.3203C5.04864 16.1603 4.99802 15.9605 4.99802 15.7305C4.99741 14.8635 5.66202 13.5202 6.99997 12.0859Z" fill="#4C37EE"/>
</svg>
