<svg width="24" height="24" viewBox="0 0 24 24" fill="none" xmlns="http://www.w3.org/2000/svg">
<path d="M7 2C6.46957 2 5.96086 2.21071 5.58579 2.58579C5.21071 2.96086 5 3.46957 5 4C5 4.53043 5.21071 5.03914 5.58579 5.41421C5.96086 5.78929 6.46957 6 7 6C7.53043 6 8.03914 5.78929 8.41421 5.41421C8.78929 5.03914 9 4.53043 9 4C9 3.46957 8.78929 2.96086 8.41421 2.58579C8.03914 2.21071 7.53043 2 7 2ZM12 2C11.4696 2 10.9609 2.21071 10.5858 2.58579C10.2107 2.96086 10 3.46957 10 4C10 4.53043 10.2107 5.03914 10.5858 5.41421C10.9609 5.78929 11.4696 6 12 6C12.5304 6 13.0391 5.78929 13.4142 5.41421C13.7893 5.03914 14 4.53043 14 4C14 3.46957 13.7893 2.96086 13.4142 2.58579C13.0391 2.21071 12.5304 2 12 2ZM17 2C16.4696 2 15.9609 2.21071 15.5858 2.58579C15.2107 2.96086 15 3.46957 15 4C15 4.53043 15.2107 5.03914 15.5858 5.41421C15.9609 5.78929 16.4696 6 17 6C17.5304 6 18.0391 5.78929 18.4142 5.41421C18.7893 5.03914 19 4.53043 19 4C19 3.46957 18.7893 2.96086 18.4142 2.58579C18.0391 2.21071 17.5304 2 17 2ZM5 7C3.895 7 3 7.895 3 9V16H4V22H6V14H5V9H6.10156C6.25356 8.257 6.58339 7.584 7.02539 7H5ZM11 7C9.343 7 8 8.343 8 10V18H9V22H11V18H13V22H15V18H16V10C16 8.343 14.657 7 13 7H11ZM16.9746 7C17.4166 7.584 17.7474 8.257 17.8984 9H19V14H18V22H20V16H21V9C21 7.895 20.105 7 19 7H16.9746ZM11 9H13C13.552 9 14 9.448 14 10V16H10V10C10 9.448 10.448 9 11 9Z" fill="#4C37EE"/>
</svg>
