<svg width="20" height="20" viewBox="0 0 20 20" fill="none" xmlns="http://www.w3.org/2000/svg">
<path d="M6.66636 2.5C4.36553 2.5 2.49969 4.36583 2.49969 6.66667V13.3333C2.49969 15.6342 4.36553 17.5 6.66636 17.5H13.333C15.6339 17.5 17.4997 15.6342 17.4997 13.3333V6.66667C17.4997 4.36583 15.6339 2.5 13.333 2.5H6.66636ZM14.9997 4.16667C15.4597 4.16667 15.833 4.54 15.833 5C15.833 5.46 15.4597 5.83333 14.9997 5.83333C14.5397 5.83333 14.1664 5.46 14.1664 5C14.1664 4.54 14.5397 4.16667 14.9997 4.16667ZM9.99969 5.83333C12.3005 5.83333 14.1664 7.69917 14.1664 10C14.1664 12.3008 12.3005 14.1667 9.99969 14.1667C7.69886 14.1667 5.83303 12.3008 5.83303 10C5.83303 7.69917 7.69886 5.83333 9.99969 5.83333ZM9.99969 7.5C9.33665 7.5 8.70077 7.76339 8.23193 8.23223C7.76309 8.70107 7.49969 9.33696 7.49969 10C7.49969 10.663 7.76309 11.2989 8.23193 11.7678C8.70077 12.2366 9.33665 12.5 9.99969 12.5C10.6627 12.5 11.2986 12.2366 11.7675 11.7678C12.2363 11.2989 12.4997 10.663 12.4997 10C12.4997 9.33696 12.2363 8.70107 11.7675 8.23223C11.2986 7.76339 10.6627 7.5 9.99969 7.5Z" fill="#4C37EE"/>
</svg>
