<svg width="20" height="20" viewBox="0 0 20 20" fill="none" xmlns="http://www.w3.org/2000/svg">
<path d="M18.333 3.33252C17.6831 3.71835 16.3789 4.24419 15.6122 4.39585C15.5897 4.40169 15.5714 4.40919 15.5497 4.41502C14.8722 3.74669 13.9439 3.33252 12.9164 3.33252C10.8455 3.33252 9.16638 5.01169 9.16638 7.08252C9.16638 7.19169 9.15722 7.39252 9.16638 7.49919C6.37222 7.49919 4.24555 6.03585 2.72055 4.16585C2.55472 4.58252 2.48222 5.24085 2.48222 5.85919C2.48222 7.02669 3.39472 8.17335 4.81555 8.88419C4.55388 8.95169 4.26555 9.00002 3.96555 9.00002C3.48138 9.00002 2.96888 8.87252 2.49972 8.48585C2.49972 8.50002 2.49972 8.51335 2.49972 8.52835C2.49972 10.16 4.23138 11.2709 5.77138 11.58C5.45888 11.7642 4.82888 11.7825 4.52138 11.7825C4.30472 11.7825 3.53805 11.6834 3.33305 11.645C3.76138 12.9825 5.30638 13.7342 6.77888 13.7609C5.62722 14.6642 4.82805 14.9992 2.46972 14.9992H1.66638C3.15638 15.9542 5.05388 16.6667 6.95555 16.6667C13.1472 16.6667 16.6664 11.9475 16.6664 7.49919C16.6664 7.42752 16.6647 7.27752 16.6622 7.12669C16.6622 7.11169 16.6664 7.09752 16.6664 7.08252C16.6664 7.06002 16.6597 7.03835 16.6597 7.01585C16.6572 6.90252 16.6547 6.79669 16.6522 6.74169C17.3105 6.26669 17.8814 5.67419 18.333 4.99919C17.7289 5.26752 17.0805 5.44752 16.3997 5.52919C17.0947 5.11252 18.0822 4.11919 18.333 3.33252Z" fill="#4C37EE"/>
</svg>
