<svg width="20" height="20" viewBox="0 0 20 20" fill="none" xmlns="http://www.w3.org/2000/svg">
<path d="M17.9842 5.15516C17.7926 4.4385 17.2276 3.8735 16.5109 3.68183C15.2109 3.3335 9.99923 3.3335 9.99923 3.3335C9.99923 3.3335 4.78756 3.3335 3.48756 3.68183C2.77089 3.8735 2.20589 4.4385 2.01423 5.15516C1.66589 6.45516 1.66589 10.0002 1.66589 10.0002C1.66589 10.0002 1.66589 13.5452 2.01423 14.8452C2.20589 15.5618 2.77089 16.1268 3.48756 16.3185C4.78756 16.6668 9.99923 16.6668 9.99923 16.6668C9.99923 16.6668 15.2109 16.6668 16.5109 16.3185C17.2284 16.1268 17.7926 15.5618 17.9842 14.8452C18.3326 13.5452 18.3326 10.0002 18.3326 10.0002C18.3326 10.0002 18.3326 6.45516 17.9842 5.15516ZM8.33256 12.8868V7.1135L13.3326 10.0002L8.33256 12.8868Z" fill="#4C37EE"/>
</svg>
