<svg width="24" height="24" viewBox="0 0 24 24" fill="none" xmlns="http://www.w3.org/2000/svg">
<path d="M9.50004 2.32812C7.47254 2.85113 5.69404 3.98613 4.37854 5.53463L9.50004 8.66562V2.32812Z" fill="#3F51B5"/>
<path d="M4.30249 18.3821C5.62449 19.9746 7.43499 21.1396 9.49999 21.6726V15.2051L4.30249 18.3821Z" fill="#3F51B5"/>
<path d="M2.328 14.5C2.3345 14.526 2.341 14.5515 2.348 14.5775L2.474 14.5H2.328Z" fill="white"/>
<path d="M19.788 5.73462C18.458 4.08412 16.614 2.87313 14.5 2.32812V8.96663L19.788 5.73462Z" fill="#3F51B5"/>
<path d="M14.5 21.6723C16.6515 21.1173 18.5205 19.8708 19.8555 18.1753L14.5 14.9023V21.6723Z" fill="#3F51B5"/>
<path d="M2.3765 9.31055C2.359 9.37305 2.344 9.43705 2.328 9.50005H2.6865L2.3765 9.31055Z" fill="white"/>
<path d="M21.8755 10.5003C21.828 10.1853 21.7665 9.87579 21.6905 9.57129L20.171 10.5003H21.8755Z" fill="white"/>
<path d="M2.68651 9.5H2.32801C2.24351 9.8275 2.17601 10.1605 2.12451 10.5H4.32251L2.68651 9.5Z" fill="white"/>
<path d="M21.72 14.3145C21.7835 14.047 21.834 13.775 21.8755 13.5H20.387L21.72 14.3145Z" fill="white"/>
<path d="M4.11001 13.5H2.12451C2.17551 13.8395 2.24351 14.1725 2.32801 14.5H2.47451L4.11001 13.5Z" fill="white"/>
<path d="M10.5 9.27602V2.12402C10.1605 2.17502 9.8275 2.24302 9.5 2.32752V8.66502L10.5 9.27602Z" fill="white"/>
<path d="M13.5 14.291V21.8755C13.8395 21.8245 14.1725 21.7565 14.5 21.672V14.902L13.5 14.291Z" fill="white"/>
<path d="M9.5 15.2048V21.6718C9.8275 21.7563 10.1605 21.8238 10.5 21.8752V14.5938L9.5 15.2048Z" fill="white"/>
<path d="M13.5925 9.34652L13.7345 9.43352L14.5 8.96552V2.32752C14.1725 2.24302 13.8395 2.17552 13.5 2.12402V9.49802L13.5925 9.34652Z" fill="white"/>
<path d="M4.32248 10.4997H9.01748L10.5 9.59368V9.27668L9.49998 8.66518L4.37848 5.53418C3.95148 6.03718 3.57198 6.58118 3.24948 7.16268L7.02498 9.49968H4.29698L2.65048 8.47618C2.54748 8.74918 2.45548 9.02668 2.37598 9.31018L2.68648 9.49968L4.32248 10.4997Z" fill="white"/>
<path d="M13.7345 9.43388L15.4785 10.4999H20.171L21.6905 9.57088C21.528 8.92088 21.303 8.29737 21.02 7.70487L18.139 9.49988H15.411L20.317 6.44987C20.1515 6.20287 19.9735 5.96538 19.7875 5.73438L14.5 8.96587L13.7345 9.43388Z" fill="white"/>
<path d="M7.025 9.50009L3.25 7.16309C3.0175 7.58259 2.822 8.02309 2.651 8.47659L4.297 9.50009H7.025Z" fill="#E53935"/>
<path d="M18.139 9.4997L21.0205 7.7047C20.813 7.2697 20.5835 6.8477 20.3175 6.4502L15.411 9.4997H18.139Z" fill="#E53935"/>
<path d="M13.5 13.5V14.291L14.5 14.902L19.8555 18.1755C20.2415 17.685 20.5835 17.159 20.8735 16.6005L17.4855 14.5H20.2135L21.443 15.267C21.5505 14.956 21.643 14.639 21.7195 14.315L20.387 13.5H13.5Z" fill="white"/>
<path d="M15.4785 10.4997L13.7345 9.43368L13.5925 9.34668L13.5 9.49818V10.4997H15.4785Z" fill="white"/>
<path d="M10.5 14.594V13.5H4.11003L2.47403 14.5L2.34753 14.5775C2.52353 15.238 2.76353 15.871 3.06403 16.4705L6.16453 14.5H8.89253L3.80153 17.7165C3.96053 17.9445 4.12553 18.1685 4.30253 18.382L9.50003 15.205L10.5 14.594Z" fill="white"/>
<path d="M9.01746 10.4998H10.5V9.59375L9.01746 10.4998Z" fill="white"/>
<path d="M17.4855 14.5L20.873 16.6C21.095 16.173 21.2835 15.727 21.443 15.2665L20.2135 14.5H17.4855Z" fill="#E53935"/>
<path d="M6.16447 14.5L3.06396 16.4705C3.28146 16.9045 3.52547 17.3215 3.80147 17.7165L8.89246 14.5H6.16447Z" fill="#E53935"/>
<path d="M15.4785 10.5H13.5V13.5H20.387H21.8755C21.9495 13.0095 22 12.511 22 12C22 11.489 21.9495 10.9905 21.8755 10.5H20.171H15.4785Z" fill="#E53935"/>
<path d="M10.5 13.5V10.5H9.0175H4.3225H2.1245C2.0505 10.9905 2 11.489 2 12C2 12.511 2.0505 13.0095 2.1245 13.5H4.11H10.5Z" fill="#E53935"/>
<path d="M13.5 21.8755V14.291V13.5V10.5V9.4985V2.1245C13.0095 2.0505 12.511 2 12 2C11.489 2 10.9905 2.0505 10.5 2.1245V9.2765V9.5935V10.5V13.5V14.594V21.8755C10.9905 21.9495 11.489 22 12 22C12.511 22 13.0095 21.9495 13.5 21.8755Z" fill="#E53935"/>
</svg>
