<svg width="24" height="24" viewBox="0 0 24 24" fill="none" xmlns="http://www.w3.org/2000/svg">
<path d="M16 2.8375C14.7745 2.302 13.423 2 12 2C10.577 2 9.2255 2.302 8 2.8375V21.162C9.2255 21.698 10.577 22 12 22C13.423 22 14.7745 21.698 16 21.1625V2.8375Z" fill="white"/>
<path d="M22 12.0004C22 7.90089 19.5305 4.38189 16 2.83789V21.1624C19.5305 19.6189 22 16.0999 22 12.0004Z" fill="#FF3D00"/>
<path d="M2 12.0004C2 16.0999 4.4695 19.6189 8 21.1629V2.83789C4.4695 4.38189 2 7.90089 2 12.0004Z" fill="#3F51B5"/>
</svg>
