<svg width="36" height="36" viewBox="0 0 36 36" fill="none" xmlns="http://www.w3.org/2000/svg">
<path d="M18.0002 2.99976C14.4287 2.99976 11.1481 4.26032 8.56958 6.35132L19.5588 16.655V10.5701H23.7483C24.9453 10.5701 26.0142 10.8653 26.9592 11.4548C27.9027 12.0458 28.6401 12.8854 29.1711 13.9744C29.7006 15.0634 29.9651 16.2988 29.9651 17.6833V18.3689C29.9651 19.7534 29.7048 20.9892 29.1858 22.0662C28.7763 22.9137 28.2318 23.606 27.5598 24.155L30.2288 26.657C31.9658 24.2075 33.0002 21.2248 33.0002 17.9998C33.0002 9.72876 26.2712 2.99976 18.0002 2.99976ZM6.43091 8.46069C4.28741 11.0542 3.00024 14.3803 3.00024 17.9998C3.00024 26.2708 9.72924 32.9998 18.0002 32.9998C21.9662 32.9998 25.5692 31.4417 28.2542 28.9187L24.5247 25.4236C24.2802 25.4521 24.0312 25.4748 23.7747 25.4763H19.5588V20.7712L15.2581 16.7371L18.0002 25.4705H14.9709L14.1536 22.406H9.85278L9.0354 25.4705H6.0061L10.2307 12.0203L6.43091 8.46069ZM22.3655 13.0574V19.283L25.679 22.3914C25.883 22.2324 26.0736 22.0523 26.2356 21.8318C26.8146 21.0458 27.1113 19.9251 27.1233 18.4626V17.6716C27.1233 16.1566 26.8379 15.0092 26.2649 14.2292C25.6904 13.4492 24.8508 13.0574 23.7483 13.0574H22.3655ZM12.0032 14.3406L10.5178 19.9158H13.4885L12.0032 14.3406Z" fill="#4C37EE"/>
</svg>
