<svg width="21" height="20" viewBox="0 0 21 20" fill="none" xmlns="http://www.w3.org/2000/svg">
<path d="M18.3108 13.9004C17.8796 14.8582 17.6718 15.2863 17.1171 16.1316C16.3405 17.3129 15.2452 18.7879 13.8921 18.7973C12.6874 18.8082 12.3765 18.0113 10.7405 18.0254C9.10614 18.0332 8.76552 18.8129 7.55927 18.8004C6.20458 18.7879 5.16864 17.4598 4.39208 16.2801C2.22021 12.9723 1.99052 9.09414 3.33271 7.03164C4.28271 5.56914 5.78427 4.70977 7.19521 4.70977C8.63271 4.70977 9.53583 5.49883 10.7233 5.49883C11.8765 5.49883 12.578 4.7082 14.2405 4.7082C15.4968 4.7082 16.8249 5.39258 17.7749 6.57383C14.6686 8.27695 15.1733 12.7129 18.3108 13.9004ZM12.978 3.38789C13.5827 2.61133 14.0421 1.51602 13.8749 0.400391C12.889 0.467578 11.7358 1.09727 11.0624 1.91289C10.4515 2.65664 9.94521 3.75977 10.1421 4.82695C11.2186 4.86133 12.3327 4.21914 12.978 3.38789Z" fill="black"/>
</svg>
