<svg width="80" height="120" viewBox="0 0 80 120" fill="none" xmlns="http://www.w3.org/2000/svg">
<path fill-rule="evenodd" clip-rule="evenodd" d="M79.9998 0.827105C80.0093 1.2934 79.6429 1.67918 79.1815 1.68877C69.3378 1.89344 59.796 2.16109 50.7066 5.93544C34.2942 12.7507 22.0492 26.0652 15.0156 42.4123C5.90416 63.5885 4.16751 89.0275 6.29512 111.96C6.33821 112.425 6.00061 112.836 5.54107 112.88C5.08155 112.923 4.6741 112.582 4.63102 112.118C2.48821 89.0216 4.21932 63.2685 13.4828 41.7389C20.6662 25.0436 33.2051 11.3769 50.0713 4.37325C59.4926 0.46109 69.3438 0.204013 79.1471 0.00018231C79.6085 -0.00941217 79.9903 0.360814 79.9998 0.827105Z" fill="white"/>
<path fill-rule="evenodd" clip-rule="evenodd" d="M8.74578 107.438C9.17052 107.62 9.3684 108.116 9.18776 108.545C8.37402 110.479 7.84176 112.519 7.41614 114.625C7.203 115.68 7.04104 116.735 6.93309 117.803C6.92105 117.923 6.91387 118.072 6.90546 118.247C6.89777 118.407 6.88904 118.588 6.87463 118.788C6.86411 118.934 6.846 119.167 6.79783 119.337C6.78666 119.377 6.75219 119.497 6.66879 119.621C6.626 119.684 6.5323 119.807 6.36723 119.897C6.17307 120.003 5.9331 120.035 5.70106 119.958C5.50226 119.893 5.37982 119.771 5.32246 119.706C5.2606 119.635 5.22178 119.567 5.2002 119.526C5.15717 119.443 5.13138 119.365 5.11687 119.317C5.05939 119.128 5.00201 118.939 4.94466 118.749C4.19882 116.288 3.45881 113.847 2.56403 111.477C1.91102 109.747 1.20222 108.087 0.167216 106.693C-0.109712 106.32 -0.0348807 105.791 0.334356 105.511C0.703594 105.231 1.22741 105.307 1.50434 105.68C2.68879 107.275 3.46505 109.125 4.12565 110.875C4.6644 112.302 5.1478 113.752 5.60568 115.204C5.6592 114.898 5.71684 114.592 5.77852 114.287C6.21531 112.126 6.7746 109.963 7.64967 107.884C7.83031 107.455 8.32105 107.255 8.74578 107.438Z" fill="white"/>
</svg>
