<svg width="137" height="173" viewBox="0 0 137 173" fill="none" xmlns="http://www.w3.org/2000/svg">
<path fill-rule="evenodd" clip-rule="evenodd" d="M45.415 13.2997C45.3169 13.8822 45.7096 14.434 46.2922 14.5321C63.1269 17.3678 80.0093 25.2916 92.9208 36.5715C106.439 48.3815 118.435 67.7863 121.846 85.4011C126.03 107.008 117.182 128.991 100.336 142.861C92.403 149.393 85.6742 152.705 75.9878 156.165C67.0037 159.375 58.1969 160.519 49.0589 161.707C45.4513 162.176 41.7921 162.652 38.05 163.264C37.467 163.359 37.0717 163.909 37.167 164.492C37.2624 165.075 37.8123 165.47 38.3953 165.375C41.9871 164.787 45.5594 164.323 49.1205 163.86C58.3444 162.661 67.4927 161.472 76.7075 158.18C86.5536 154.662 93.5201 151.244 101.696 144.513C119.096 130.186 128.292 107.434 123.946 84.9944C120.434 66.8598 108.163 47.0466 94.3283 34.9604C81.1152 23.4171 63.8675 15.3231 46.6475 12.4226C46.0649 12.3245 45.5132 12.7172 45.415 13.2997Z" fill="white"/>
<path fill-rule="evenodd" clip-rule="evenodd" d="M47.5438 155.888C47.194 155.412 46.5245 155.31 46.0485 155.66C44.2584 156.975 42.2471 157.948 40.1573 158.958C39.402 159.323 38.6365 159.693 37.8675 160.086C34.8739 161.616 31.9238 162.774 28.6937 163.593C28.5955 163.618 28.4593 163.658 28.3221 163.729C28.2274 163.778 27.8948 163.958 27.7467 164.373C27.555 164.91 27.8213 165.334 27.9796 165.508C28.1252 165.668 28.2877 165.757 28.3648 165.797C28.6636 165.951 29.1148 166.06 29.4587 166.136C29.8531 166.223 30.3067 166.307 30.7122 166.381C30.794 166.395 30.8734 166.41 30.9498 166.423C31.2648 166.48 31.5313 166.528 31.7214 166.568C35.7703 167.409 39.5642 168.691 43.5107 170.128C44.0658 170.33 44.6796 170.043 44.8817 169.488C45.0838 168.933 44.7975 168.319 44.2424 168.117C40.4682 166.744 36.7434 165.476 32.7681 164.604C34.8419 163.884 36.8378 163.015 38.8411 161.991C39.5143 161.647 40.2192 161.307 40.939 160.959C43.08 159.924 45.3526 158.826 47.3153 157.384C47.7913 157.034 47.8936 156.364 47.5438 155.888ZM29.2105 165.669C29.2106 165.669 29.2124 165.668 29.2155 165.667C29.212 165.668 29.2104 165.669 29.2105 165.669Z" fill="white"/>
</svg>
