<svg width="24" height="24" viewBox="0 0 24 24" fill="none" xmlns="http://www.w3.org/2000/svg">
<rect width="24" height="24" rx="6" fill="#F2F2F2"/>
<path d="M12 5.59998C10.2325 5.59998 8.79997 7.03251 8.79997 8.79998V9.33331C8.79997 11.1008 10.2325 12.5333 12 12.5333C13.7674 12.5333 15.2 11.1008 15.2 9.33331V8.79998C15.2 7.03251 13.7674 5.59998 12 5.59998ZM11.9989 14.1333C9.8624 14.1333 7.12107 15.289 6.33227 16.3146C5.8448 16.9487 6.30884 17.8666 7.10831 17.8666H16.8906C17.6901 17.8666 18.1541 16.9487 17.6666 16.3146C16.8778 15.2895 14.1355 14.1333 11.9989 14.1333Z" fill="black" fill-opacity="0.2"/>
</svg>
