<svg width="225" height="191" viewBox="0 0 225 191" fill="none" xmlns="http://www.w3.org/2000/svg">
<path fill-rule="evenodd" clip-rule="evenodd" d="M186.892 6.92379C186.998 7.49396 186.692 8.07762 186.208 8.22744C172.228 12.557 158.415 21.9479 148.061 34.3179C137.22 47.2693 127.96 67.6323 125.816 85.4457C123.185 107.296 131.479 128.35 146.142 140.624C153.047 146.404 158.814 149.091 167.063 151.661C174.714 154.044 182.133 154.391 189.831 154.751C192.87 154.893 195.953 155.038 199.11 155.31C199.602 155.352 199.955 155.864 199.899 156.452C199.843 157.04 199.398 157.482 198.906 157.439C195.876 157.178 192.866 157.037 189.866 156.897C182.096 156.533 174.389 156.172 166.542 153.727C158.157 151.115 152.187 148.344 145.07 142.387C129.925 129.71 121.308 107.923 124.041 85.23C126.249 66.891 135.723 46.0973 146.817 32.8431C157.413 20.1841 171.526 10.5913 185.825 6.16268C186.309 6.01286 186.787 6.35362 186.892 6.92379Z" fill="black"/>
<path fill-rule="evenodd" clip-rule="evenodd" d="M190.865 148.832C191.138 148.327 191.695 148.165 192.107 148.47C193.659 149.617 195.382 150.403 197.172 151.22C197.819 151.515 198.475 151.814 199.135 152.136C201.703 153.388 204.219 154.274 206.957 154.797C207.04 154.813 207.155 154.841 207.273 154.899C207.354 154.939 207.64 155.088 207.781 155.487C207.963 156.004 207.757 156.449 207.632 156.636C207.516 156.808 207.384 156.912 207.321 156.958C207.077 157.138 206.704 157.287 206.419 157.393C206.092 157.515 205.716 157.64 205.379 157.749C205.311 157.771 205.245 157.792 205.182 157.813C204.921 157.898 204.699 157.969 204.542 158.026C201.186 159.225 198.062 160.84 194.816 162.622C194.359 162.873 193.834 162.643 193.642 162.11C193.451 161.576 193.665 160.94 194.122 160.69C197.226 158.986 200.294 157.392 203.586 156.168C201.821 155.639 200.115 154.954 198.397 154.116C197.819 153.835 197.215 153.559 196.599 153.278C194.765 152.442 192.818 151.555 191.116 150.297C190.704 149.992 190.591 149.336 190.865 148.832ZM206.608 156.907C206.608 156.907 206.606 156.906 206.603 156.906C206.606 156.906 206.608 156.907 206.608 156.907Z" fill="black"/>
<path fill-rule="evenodd" clip-rule="evenodd" d="M66.5559 36.3386C66.2844 36.8195 66.383 37.4397 66.7761 37.7238C78.1342 45.9351 87.7842 58.6535 93.3765 72.9877C99.2316 87.9956 101.37 109.19 97.8345 125.895C93.4977 146.384 79.4874 162.787 62.3989 169.317C54.351 172.392 48.2887 173.033 40.0092 172.803C32.3301 172.589 25.4881 170.614 18.3887 168.563C15.586 167.754 12.7431 166.933 9.79282 166.204C9.33318 166.091 8.8553 166.442 8.72544 166.989C8.59556 167.536 8.86289 168.071 9.32253 168.185C12.1543 168.884 14.9297 169.686 17.6964 170.484C24.8624 172.554 31.9699 174.606 39.8462 174.825C48.2622 175.059 54.5351 174.405 62.829 171.236C80.4797 164.491 95.008 147.527 99.512 126.248C103.152 109.051 100.951 87.4017 94.9591 72.043C89.2363 57.3741 79.3769 44.3815 67.7589 35.9823C67.3659 35.6982 66.8273 35.8577 66.5559 36.3386Z" fill="black"/>
<path fill-rule="evenodd" clip-rule="evenodd" d="M19.2723 162.913C19.1792 162.374 18.7239 162.057 18.2555 162.205C16.4938 162.759 14.6877 162.935 12.811 163.118C12.1328 163.184 11.4454 163.251 10.7476 163.338C8.03104 163.673 5.47379 163.695 2.82785 163.322C2.74741 163.31 2.63375 163.3 2.50908 163.316C2.42291 163.327 2.11772 163.373 1.86703 163.689C1.54263 164.098 1.59257 164.562 1.64883 164.77C1.7006 164.96 1.78901 165.095 1.83184 165.156C1.99789 165.393 2.29113 165.642 2.51697 165.826C2.77597 166.036 3.07939 166.264 3.3512 166.467C3.40603 166.508 3.45922 166.547 3.5105 166.585C3.72176 166.742 3.90044 166.875 4.02615 166.974C6.70333 169.09 9.04272 171.508 11.441 174.114C11.7784 174.48 12.3259 174.436 12.6641 174.014C13.0022 173.593 13.0028 172.954 12.6655 172.588C10.3719 170.095 8.07799 167.714 5.46544 165.596C7.23073 165.664 8.99024 165.573 10.8081 165.349C11.419 165.274 12.0519 165.212 12.6982 165.149C14.6206 164.962 16.6612 164.763 18.5928 164.156C19.0613 164.008 19.3655 163.452 19.2723 162.913ZM2.49519 165.329C2.49529 165.329 2.4967 165.329 2.49934 165.33C2.49643 165.329 2.49509 165.329 2.49519 165.329Z" fill="black"/>
</svg>
