<svg width="20" height="20" viewBox="0 0 20 20" fill="none" xmlns="http://www.w3.org/2000/svg">
<path d="M8.19206 18.6553C8.5107 18.6538 8.82968 18.5308 9.07259 18.2874L13.6803 13.6699C13.992 13.3574 14.167 12.9348 14.167 12.4932V4.16633C14.167 3.24549 13.4212 2.49966 12.5003 2.49966H5.00684C4.341 2.49966 3.7386 2.89628 3.47526 3.50878L0.968752 9.34374C0.879585 9.55124 0.83366 9.77546 0.83366 10.0013V11.6663C0.83366 12.5872 1.57949 13.333 2.50033 13.333H7.79329L6.96484 17.1367C6.87318 17.5567 7.00406 17.9947 7.3099 18.2956C7.5549 18.5364 7.87341 18.6567 8.19206 18.6553ZM18.3337 12.4997C18.7937 12.4997 19.167 12.1263 19.167 11.6663V3.33299C19.167 2.87299 18.7937 2.49966 18.3337 2.49966H16.667C16.207 2.49966 15.8337 2.87299 15.8337 3.33299V11.6663C15.8337 12.1263 16.207 12.4997 16.667 12.4997H18.3337Z" fill="#111111" fill-opacity="0.6"/>
</svg>
