<svg width="36" height="36" viewBox="0 0 36 36" fill="none" xmlns="http://www.w3.org/2000/svg">
<path d="M4.49976 6.00037C2.84226 6.00037 1.49976 7.34287 1.49976 9.00037V27.0004C1.49976 28.6579 2.84226 30.0004 4.49976 30.0004H16.4998V6.00037H4.49976ZM19.4998 6.00037V30.0004H31.4998C33.1573 30.0004 34.4998 28.6579 34.4998 27.0004V9.00037C34.4998 7.34287 33.1573 6.00037 31.4998 6.00037H19.4998ZM23.2498 10.5004H30.7498C31.1638 10.5004 31.4998 10.8364 31.4998 11.2504V12.7504C31.4998 13.1644 31.1638 13.5004 30.7498 13.5004H23.2498C22.8358 13.5004 22.4998 13.1644 22.4998 12.7504V11.2504C22.4998 10.8364 22.8358 10.5004 23.2498 10.5004ZM23.2498 16.5004H30.7498C31.1638 16.5004 31.4998 16.8364 31.4998 17.2504V18.7504C31.4998 19.1644 31.1638 19.5004 30.7498 19.5004H23.2498C22.8358 19.5004 22.4998 19.1644 22.4998 18.7504V17.2504C22.4998 16.8364 22.8358 16.5004 23.2498 16.5004ZM23.2498 22.5004H30.7498C31.1638 22.5004 31.4998 22.8364 31.4998 23.2504V24.7504C31.4998 25.1644 31.1638 25.5004 30.7498 25.5004H23.2498C22.8358 25.5004 22.4998 25.1644 22.4998 24.7504V23.2504C22.4998 22.8364 22.8358 22.5004 23.2498 22.5004Z" fill="#4C37EE"/>
</svg>
