<svg width="525" height="525" viewBox="0 0 525 525" fill="none" xmlns="http://www.w3.org/2000/svg">
<path d="M518.513 202.082C495.048 82.773 376.57 10.6659 277.128 1.47371C194.744 -6.14849 94.8911 14.6353 48.7405 91.1106C20.4633 137.964 55.3434 158.602 35.7878 262.306C18.8568 352.063 -12.0009 384.407 6.78311 430.153C22.1392 467.555 57.0827 483.945 80.022 495.252C170.438 539.82 336.978 536.275 435.863 454.982C458.998 435.952 545.057 337.041 518.513 202.082Z" fill="white"/>
<path d="M174.284 112.414C172.766 116.611 171.608 120.871 170.83 125.164L150.668 129.696L150.649 148.663L170.837 153.247C171.615 157.583 172.753 161.85 174.233 165.997L159.01 180.032L168.465 196.467L188.204 190.339C191.019 193.675 194.143 196.796 197.546 199.676L191.373 219.447L207.772 228.95L221.826 213.743C226.013 215.263 230.275 216.421 234.563 217.2L239.092 237.382L258.04 237.401L262.619 217.2C266.952 216.421 271.214 215.282 275.357 213.8L289.379 229.038L305.797 219.574L299.675 199.816C303.008 196.998 306.126 193.871 309.004 190.465L328.756 196.644L338.249 180.228L323.057 166.161C324.575 161.964 325.732 157.704 326.51 153.411L346.673 148.879L346.692 129.912L326.51 125.328C325.732 120.992 324.594 116.725 323.114 112.578L338.337 98.5429L328.882 82.1084L309.143 88.2365C306.329 84.9002 303.204 81.7791 299.802 78.8987L305.974 59.1278L289.575 49.6254L275.522 64.8318C271.328 63.3124 267.072 62.1539 262.777 61.3752L258.249 41.1928L239.301 41.1738L234.722 61.3815C230.389 62.1602 226.126 63.2997 221.984 64.7811L207.962 49.5431L191.544 59.0075L197.666 78.7657C194.333 81.5829 191.215 84.7103 188.337 88.1162L168.585 81.9374L159.092 98.353L174.284 112.414ZM206.457 114.832C219.947 91.4968 249.787 83.5264 273.099 97.0362C296.412 110.54 304.374 140.408 290.878 163.743C277.387 187.078 247.548 195.049 224.235 181.539C200.923 168.029 192.96 138.167 206.457 114.832Z" fill="white"/>
<path d="M345.079 501.893H239.427L184.896 406.355V489.801C184.896 502.849 194.402 513.288 205.932 513.288H247.339H332.342H345.079C347.325 513.288 349.336 511.718 349.336 509.47V505.735C349.336 503.488 347.325 501.893 345.079 501.893Z" fill="white"/>
<path d="M200.392 436.369V483.691C200.392 493.282 207.987 500.943 217.569 500.943H308.542V436.369H200.392Z" fill="white"/>
<path d="M309.491 501.893H217.569C207.406 501.893 199.443 493.897 199.443 483.692V435.42H309.491V501.893ZM201.34 437.319V483.692C201.34 492.833 208.468 499.993 217.569 499.993H307.594V437.319H201.34Z" fill="#111111"/>
<path d="M486.649 440.737L43.08 441.706C39.2031 441.706 35.9269 438.819 35.4335 434.957L0.0981015 158.557C-0.762044 151.834 4.13308 145.484 10.8941 145.484L448.721 145.883L486.649 440.737Z" fill="white"/>
<path d="M495.738 440.382H61.0354C57.1585 440.382 53.8887 437.483 53.3891 433.615L18.2813 159.703C17.3073 152.093 23.1954 145.357 30.8165 145.357H459.915C463.792 145.357 467.062 148.257 467.561 152.125L503.39 431.633C503.979 436.274 500.386 440.382 495.738 440.382Z" fill="white"/>
<path d="M495.738 441.333H61.0292C56.6905 441.333 52.997 438.066 52.4468 433.736L17.339 159.824C16.8393 155.912 18.041 151.974 20.634 149.017C23.2082 146.086 26.9208 144.402 30.8104 144.402H459.909C464.248 144.402 467.941 147.669 468.491 151.999L504.32 431.507C504.636 434.002 503.871 436.509 502.22 438.389C500.582 440.263 498.217 441.333 495.738 441.333ZM30.8166 146.308C27.4708 146.308 24.2833 147.751 22.0634 150.277C19.8245 152.822 18.7936 156.215 19.2237 159.59L54.3315 433.502C54.7679 436.889 57.6455 439.44 61.0355 439.44H495.744C497.679 439.44 499.52 438.604 500.804 437.148C502.1 435.673 502.695 433.711 502.448 431.761L466.619 152.252C466.183 148.866 463.305 146.314 459.915 146.314H30.8166V146.308Z" fill="#111111"/>
<path d="M52.4595 119.148H433.175C441.58 119.148 449.227 125.992 450.251 134.431L482.368 398.024C483.405 406.551 477.396 413.471 468.947 413.471H86.0873C77.6376 413.471 69.9975 406.551 69.0236 398.024L38.9754 134.431C38.0267 125.992 44.0541 119.148 52.4595 119.148Z" fill="white"/>
<path d="M451.459 143.769L450.745 134.299C449.726 125.936 441.808 119.27 433.409 119.27H52.6871C44.2817 119.27 38.1658 125.929 39.1208 134.299L40.0126 145.96L451.459 143.769Z" fill="white"/>
<path d="M63.0846 134.69C63.3945 137.406 61.4466 139.616 58.7333 139.616C56.0201 139.616 53.5662 137.413 53.2563 134.69C52.9464 131.975 54.8943 129.771 57.6075 129.771C60.3208 129.771 62.7747 131.975 63.0846 134.69Z" fill="white"/>
<path d="M78.7759 134.36C79.0858 137.076 77.1379 139.286 74.4247 139.286C71.7114 139.286 69.2574 137.083 68.9412 134.36C68.6312 131.645 70.5793 129.441 73.2926 129.441C76.0121 129.441 78.466 131.645 78.7759 134.36Z" fill="white"/>
<path d="M95.8967 135.019C96.2066 137.734 94.2648 139.944 91.5453 139.944C88.8257 139.944 86.3781 137.741 86.0619 135.019C85.752 132.303 87.7 130.1 90.4133 130.1C93.1265 130.1 95.5804 132.296 95.8967 135.019Z" fill="white"/>
<path d="M185.485 291.415H202.751L204.933 310.104H187.66L191.278 341.187H168.073L164.468 310.104H104.435L102.139 295.916L151.142 201.791H175.049L185.485 291.415ZM125.951 291.415H162.299L155.55 233.229L154.19 236.287L125.951 291.415Z" fill="white"/>
<path d="M307.581 282.406C309.965 302.462 308.024 317.598 301.756 327.797C295.482 338.002 284.711 343.105 269.431 343.105C254.404 343.105 242.507 338.129 233.735 328.183C224.963 318.238 219.347 303.525 216.874 284.039L214.047 259.913C211.7 239.889 213.68 224.878 219.966 214.876C226.253 204.88 237.049 199.885 252.348 199.885C267.521 199.885 279.418 204.753 288.032 214.496C296.652 224.239 302.211 238.838 304.71 258.286L307.581 282.406ZM281.321 256.368C279.772 243.295 276.862 233.716 272.587 227.632C268.311 221.549 262.297 218.503 254.549 218.503C246.991 218.503 241.773 221.384 238.896 227.151C236.018 232.919 235.202 241.921 236.448 254.164L240.161 285.755C241.691 298.783 244.645 308.501 249.021 314.889C253.398 321.283 259.47 324.48 267.236 324.48C274.68 324.48 279.835 321.523 282.7 315.611C285.565 309.698 286.349 300.448 285.046 287.863L281.321 256.368Z" fill="white"/>
<path d="M407.585 291.415H424.851L427.116 310.104H409.843L413.594 341.187H390.389L386.651 310.104H326.618L324.259 295.916L372.863 201.791H396.77L407.585 291.415ZM348.052 291.415H384.399L377.404 233.229L376.057 236.287L348.052 291.415Z" fill="white"/>
<path d="M195.73 336.95H172.525C172.045 336.95 171.64 336.589 171.583 336.108L168.073 305.866H108.887C108.419 305.866 108.027 305.53 107.951 305.068L105.655 290.881C105.624 290.679 105.656 290.47 105.75 290.292L154.753 196.167C154.918 195.851 155.24 195.654 155.594 195.654H179.501C179.982 195.654 180.387 196.015 180.444 196.496L190.778 285.279H207.203C207.684 285.279 208.089 285.639 208.146 286.12L210.328 304.809C210.359 305.075 210.277 305.347 210.094 305.549C209.916 305.752 209.657 305.866 209.385 305.866H193.175L196.673 335.886C196.704 336.159 196.622 336.424 196.439 336.627C196.255 336.836 196.002 336.95 195.73 336.95ZM173.367 335.051H194.661L191.164 305.03C191.132 304.758 191.215 304.492 191.398 304.29C191.575 304.087 191.834 303.973 192.106 303.973H208.316L206.356 287.184H189.931C189.45 287.184 189.045 286.823 188.988 286.342L178.654 197.56H156.17L107.578 290.894L109.697 303.973H168.92C169.401 303.973 169.806 304.334 169.863 304.815L173.367 335.051ZM166.751 287.178H130.404C130.075 287.178 129.765 287.007 129.594 286.722C129.423 286.437 129.411 286.089 129.562 285.791L157.802 230.663L159.143 227.65C159.313 227.257 159.724 227.029 160.154 227.099C160.578 227.162 160.907 227.504 160.951 227.928L167.7 286.114C167.731 286.38 167.643 286.652 167.466 286.855C167.282 287.064 167.023 287.178 166.751 287.178ZM131.953 285.279H165.682L159.453 231.581L131.953 285.279Z" fill="#4C37EE"/>
<path d="M273.877 338.875C258.635 338.875 246.384 333.747 237.466 323.631C228.612 313.59 222.857 298.567 220.371 278.98L217.544 254.847C215.185 234.697 217.228 219.338 223.603 209.197C230.048 198.953 241.211 193.756 256.788 193.756C272.176 193.756 284.42 198.782 293.18 208.69C301.889 218.534 307.575 233.443 310.092 252.986L312.957 277.119C315.354 297.301 313.349 312.78 306.999 323.118C300.586 333.57 289.436 338.875 273.877 338.875ZM256.801 195.649C241.919 195.649 231.294 200.542 225.222 210.197C219.081 219.965 217.133 234.906 219.441 254.613L222.262 278.74C224.697 297.934 230.294 312.615 238.896 322.365C247.44 332.057 259.21 336.97 273.883 336.97C288.74 336.97 299.346 331.975 305.399 322.111C311.521 312.147 313.437 297.08 311.091 277.328L308.226 253.201C305.766 234.051 300.225 219.484 291.776 209.931C283.383 200.46 271.619 195.649 256.801 195.649ZM271.682 320.257C263.625 320.257 257.231 316.889 252.683 310.254C248.237 303.765 245.201 293.819 243.658 280.69L239.946 249.099C238.681 236.716 239.541 227.454 242.488 221.548C245.53 215.464 251.083 212.375 258.989 212.375C267.027 212.375 273.358 215.578 277.805 221.902C282.156 228.094 285.148 237.906 286.71 251.074L290.435 282.576C291.75 295.295 290.928 304.803 288 310.849C284.977 317.091 279.487 320.257 271.682 320.257ZM258.995 214.274C251.76 214.274 246.915 216.933 244.189 222.396C241.407 227.973 240.616 236.887 241.837 248.89L245.549 280.468C247.054 293.288 249.983 302.948 254.252 309.178C258.483 315.357 264.181 318.357 271.682 318.357C278.798 318.357 283.579 315.629 286.292 310.02C289.062 304.297 289.828 295.13 288.55 282.785L284.825 251.302C283.301 238.451 280.423 228.929 276.255 222.998C272.131 217.129 266.484 214.274 258.995 214.274Z" fill="#4C37EE"/>
<path d="M418.04 336.951H394.835C394.354 336.951 393.95 336.591 393.893 336.116L390.256 305.867H331.071C330.609 305.867 330.21 305.532 330.134 305.076L327.775 290.889C327.744 290.686 327.775 290.478 327.87 290.3L376.475 196.175C376.639 195.858 376.962 195.662 377.316 195.662H401.223C401.704 195.662 402.108 196.023 402.165 196.498L405.1 220.801C405.163 221.321 404.79 221.795 404.271 221.859C403.746 221.916 403.278 221.548 403.215 221.029L400.382 197.561H377.898L329.704 290.889L331.88 303.968H391.104C391.584 303.968 391.989 304.329 392.046 304.804L395.683 335.052H416.977L413.98 310.217C413.916 309.698 414.289 309.223 414.808 309.159C415.32 309.096 415.801 309.47 415.864 309.989L418.989 335.888C419.02 336.16 418.938 336.426 418.755 336.629C418.571 336.837 418.312 336.951 418.04 336.951ZM388.852 287.179H352.505C352.176 287.179 351.866 287.008 351.695 286.723C351.524 286.445 351.511 286.09 351.657 285.799L379.662 230.671L380.984 227.658C381.155 227.265 381.572 227.037 381.99 227.101C382.413 227.164 382.742 227.499 382.793 227.924L387.138 264.072C387.201 264.591 386.828 265.066 386.309 265.129C385.784 265.199 385.317 264.819 385.253 264.3L381.319 231.583L354.041 285.28H387.77L386.999 278.88C386.936 278.36 387.309 277.886 387.827 277.822C388.359 277.753 388.82 278.133 388.884 278.652L389.782 286.116C389.813 286.388 389.731 286.654 389.548 286.856C389.383 287.065 389.124 287.179 388.852 287.179Z" fill="#4C37EE"/>
<path d="M402.165 414.421H86.2327C77.3277 414.421 69.2512 407.115 68.2266 398.132L38.1785 134.539C37.6788 130.158 38.9248 126.037 41.6823 122.935C44.4082 119.877 48.2789 118.193 52.5922 118.193H433.308C442.162 118.193 450.245 125.423 451.326 134.311L461.768 220.03C461.832 220.549 461.458 221.023 460.94 221.087C460.421 221.144 459.947 220.777 459.884 220.257L449.442 134.539C448.474 126.575 441.232 120.093 433.308 120.093H52.5922C48.8291 120.093 45.4581 121.549 43.099 124.195C40.702 126.885 39.6268 130.475 40.0632 134.318L70.1113 397.91C71.0284 405.963 78.2574 412.515 86.2327 412.515H402.159C402.684 412.515 403.108 412.94 403.108 413.465C403.114 413.997 402.684 414.421 402.165 414.421Z" fill="#4C37EE"/>
<path d="M344.415 513.922H210.827C210.302 513.922 209.879 513.498 209.879 512.972C209.879 512.447 210.302 512.023 210.827 512.023H344.415C346.11 512.023 347.438 510.636 347.438 508.864V505.128C347.438 503.343 346.085 501.893 344.415 501.893H305.696C305.171 501.893 304.747 501.469 304.747 500.944C304.747 500.418 305.171 499.994 305.696 499.994H344.415C347.129 499.994 349.336 502.299 349.336 505.128V508.864C349.336 511.655 347.129 513.922 344.415 513.922Z" fill="#111111"/>
<path d="M167.497 503.791H52.3708L63.2681 482.33L72.7613 463.635L83.374 442.744L92.8672 424.062L105.213 399.771C106.117 397.992 107.945 396.871 109.937 396.871C111.93 396.871 113.757 397.985 114.662 399.771L127.007 424.055L136.501 442.737L147.113 463.622L156.606 482.323L167.497 503.791Z" fill="white"/>
<path d="M136.501 443.018H83.3803L92.8672 424.025H127.007L136.501 443.018Z" fill="#4C37EE"/>
<path d="M156.607 482.267H63.2744L72.7676 463.908H147.107L156.607 482.267Z" fill="#4C37EE"/>
<path d="M166.935 505.058H51.8081C51.4792 505.058 51.1756 504.887 50.9985 504.608C50.8277 504.33 50.8087 503.975 50.9605 503.684L61.8578 482.065L71.3573 463.294L91.4569 423.664L103.803 399.366C104.871 397.258 107.009 395.941 109.375 395.941C111.74 395.941 113.878 397.252 114.946 399.354L147.392 463.199L167.782 503.684C167.934 503.975 167.915 504.33 167.744 504.608C167.567 504.887 167.264 505.058 166.935 505.058ZM53.3512 503.159H165.391L145.697 464.054L113.251 400.208C112.505 398.746 111.019 397.834 109.375 397.834C107.73 397.834 106.244 398.746 105.497 400.215L83.665 443.213L73.0523 464.142L63.5591 482.913L53.3512 503.159Z" fill="#111111"/>
<path d="M178.173 504.19C178.173 502.056 176.447 500.328 174.315 500.328H44.99C42.8586 500.328 41.132 502.056 41.132 504.19V516.389C41.132 518.523 42.8586 520.251 44.99 520.251H174.315C176.447 520.251 178.173 518.523 178.173 516.389V504.19Z" fill="#4C37EE"/>
<path d="M174.315 521.201H44.99C42.34 521.201 40.1833 519.042 40.1833 516.39V504.19C40.1833 501.538 42.34 499.379 44.99 499.379H174.315C176.965 499.379 179.122 501.538 179.122 504.19V516.39C179.122 519.042 176.965 521.201 174.315 521.201ZM44.99 501.278C43.3899 501.278 42.0807 502.582 42.0807 504.19V516.39C42.0807 517.998 43.3836 519.302 44.99 519.302H174.315C175.915 519.302 177.225 517.998 177.225 516.39V504.19C177.225 502.582 175.922 501.278 174.315 501.278H44.99Z" fill="#111111"/>
<path d="M488.098 271.396C503.062 275.613 522.333 291.826 522.333 321.251C522.333 342.446 491.14 360.4 491.14 360.4L485.998 347.758C485.998 347.758 503.188 335.014 502.366 320.137C501.708 308.21 482.488 304.5 482.488 304.5L488.098 271.396Z" fill="#4C37EE"/>
<path d="M481.785 500.564H471.027V513.207H481.785V500.564Z" fill="#4C37EE"/>
<path d="M450.328 498.669L439.857 501.143L442.758 513.448L453.229 510.974L450.328 498.669Z" fill="#4C37EE"/>
<path d="M490.665 343.727C490.665 343.727 493.878 369.151 491.412 379.02C488.945 388.89 483.183 480.097 483.183 504.774H468.687L462.141 388.206L441.909 430.502C440.442 433.933 440.069 437.738 440.84 441.391L452.787 504.78L439.221 505.717L416.547 436.117C415.535 432.667 415.46 429.008 416.332 425.513L434.718 351.881L490.665 343.727Z" fill="#111111"/>
<path d="M462.837 386.578C462.628 386.578 462.42 386.509 462.243 386.369C461.831 386.04 461.768 385.445 462.097 385.034L469.579 375.671C469.908 375.259 470.502 375.196 470.914 375.525C471.325 375.854 471.388 376.449 471.059 376.861L463.577 386.224C463.394 386.458 463.115 386.578 462.837 386.578Z" fill="white"/>
<path d="M482.481 510.395H469.851L467.979 519.935C467.619 521.777 468.947 523.499 470.724 523.499H481.609C483.386 523.499 484.714 521.771 484.353 519.935L482.481 510.395Z" fill="white"/>
<path d="M481.609 524.45H470.724C469.63 524.45 468.586 523.949 467.878 523.082C467.119 522.158 466.815 520.942 467.049 519.746L468.922 510.205C469.01 509.762 469.396 509.439 469.851 509.439H482.481C482.937 509.439 483.323 509.762 483.411 510.205L485.283 519.746C485.517 520.942 485.214 522.158 484.455 523.082C483.746 523.956 482.709 524.45 481.609 524.45ZM470.635 511.345L468.915 520.119C468.789 520.752 468.947 521.398 469.345 521.879C469.699 522.31 470.193 522.55 470.73 522.55H481.615C482.146 522.55 482.64 522.31 482.994 521.879C483.392 521.392 483.55 520.752 483.424 520.119L481.703 511.345H470.635Z" fill="#111111"/>
<path d="M482.481 521.411H469.383C468.858 521.411 468.434 520.987 468.434 520.461C468.434 519.936 468.858 519.512 469.383 519.512H482.481C483.006 519.512 483.43 519.936 483.43 520.461C483.43 520.987 483.006 521.411 482.481 521.411Z" fill="#111111"/>
<path d="M453.483 507.584L456.943 519.074C457.543 521.075 456.329 523.189 454.539 523.246L430.784 524.05C429.317 524.101 428.729 521.822 429.968 520.885C433.832 517.979 438.974 513.94 440.391 512.022C443.667 507.584 446.937 511.465 446.937 511.465C446.937 511.465 449.277 507.584 453.483 507.584Z" fill="white"/>
<path d="M430.74 525.001C429.747 525.001 428.88 524.349 428.52 523.323C428.096 522.127 428.45 520.841 429.399 520.126C434.958 515.948 438.589 512.871 439.626 511.459C440.821 509.839 442.181 508.997 443.674 508.946C445.002 508.883 446.09 509.509 446.798 510.054C447.854 508.775 450.118 506.629 453.489 506.629C453.907 506.629 454.28 506.901 454.4 507.306L457.86 518.797C458.265 520.139 458.037 521.601 457.246 522.703C456.595 523.614 455.621 524.159 454.577 524.197L430.822 525.001C430.791 525.001 430.765 525.001 430.74 525.001ZM443.807 510.845C443.781 510.845 443.756 510.845 443.724 510.845C442.845 510.877 441.979 511.466 441.156 512.586C439.98 514.188 436.407 517.233 430.544 521.645C430.215 521.892 430.196 522.361 430.31 522.69C430.354 522.817 430.481 523.101 430.746 523.101C430.752 523.101 430.752 523.101 430.759 523.101L454.514 522.297C455.128 522.278 455.52 521.848 455.703 521.595C456.146 520.981 456.272 520.12 456.038 519.347L452.794 508.579C449.613 508.971 447.772 511.934 447.747 511.966C447.589 512.225 447.31 512.396 447.007 512.422C446.703 512.447 446.406 512.32 446.21 512.086C446.203 512.073 445.135 510.845 443.807 510.845Z" fill="#111111"/>
<path d="M433.377 520.456L454.893 519.52L433.377 520.456Z" fill="white"/>
<path d="M433.377 521.412C432.871 521.412 432.454 521.013 432.428 520.506C432.403 519.981 432.814 519.538 433.333 519.519L454.849 518.582C455.387 518.55 455.817 518.968 455.836 519.487C455.861 520.013 455.45 520.456 454.931 520.475L433.415 521.412C433.402 521.412 433.39 521.412 433.377 521.412Z" fill="#111111"/>
<path d="M466.113 264.845L477.807 272.803L445.609 271.258L454.887 265.307L456.139 259.546C454.495 259.299 452.224 259.135 451.503 258.236C450.232 256.647 450.808 251.152 450.808 251.152L449.41 250.057C449.265 249.981 449.151 249.848 449.106 249.689C449.062 249.531 449.088 249.36 449.176 249.215C450.359 247.322 451.478 246.714 452.003 244.789C452.522 242.89 452.294 243.181 454.331 239.085L466.575 239.066L466.645 248.252C466.645 248.252 468.523 247.037 469.712 248.683C470.578 249.879 468.662 253.868 467.106 253.868L466.113 264.845Z" fill="white"/>
<path d="M477.807 273.752C477.795 273.752 477.776 273.752 477.763 273.752L445.565 272.208C445.154 272.189 444.799 271.904 444.692 271.505C444.584 271.106 444.749 270.682 445.097 270.46L454.046 264.725L454.995 260.35C453.293 260.122 451.579 259.844 450.764 258.837C449.499 257.255 449.682 253.216 449.815 251.589L448.885 250.854C448.55 250.652 448.303 250.329 448.196 249.949C448.082 249.537 448.145 249.082 448.373 248.714C448.841 247.967 449.296 247.41 449.701 246.916C450.346 246.131 450.808 245.562 451.086 244.542C451.156 244.289 451.212 244.074 451.257 243.884C451.605 242.542 451.725 242.181 453.483 238.668C453.641 238.345 453.97 238.142 454.331 238.142L466.575 238.123C467.094 238.123 467.517 238.547 467.524 239.066L467.581 246.923C468.561 246.777 469.674 247.024 470.477 248.132C471.42 249.436 470.439 251.608 470.117 252.247C469.801 252.861 469.054 254.127 467.992 254.621L467.1 264.37L478.332 272.011C478.687 272.252 478.832 272.695 478.699 273.1C478.579 273.493 478.212 273.752 477.807 273.752ZM448.626 270.454L474.487 271.695L465.576 265.63C465.291 265.434 465.133 265.105 465.165 264.756L466.164 253.792C466.208 253.304 466.619 252.931 467.106 252.931C467.239 252.924 467.77 252.582 468.333 251.57C468.953 250.449 469.054 249.461 468.94 249.246C468.302 248.366 467.271 248.993 467.157 249.063C466.866 249.252 466.499 249.265 466.189 249.101C465.886 248.936 465.696 248.619 465.69 248.271L465.626 240.029L454.912 240.041C453.445 242.991 453.376 243.27 453.091 244.365C453.04 244.561 452.983 244.783 452.914 245.043C452.528 246.454 451.87 247.265 451.168 248.119C450.839 248.518 450.504 248.93 450.156 249.442L451.39 250.411C451.649 250.614 451.782 250.93 451.75 251.259C451.529 253.38 451.535 256.767 452.243 257.647C452.623 258.116 454.426 258.356 455.501 258.502C455.766 258.54 456.026 258.571 456.272 258.609C456.532 258.647 456.766 258.793 456.911 259.008C457.063 259.223 457.113 259.489 457.057 259.749L455.811 265.51C455.76 265.757 455.608 265.972 455.393 266.111L448.626 270.454Z" fill="#111111"/>
<path d="M467.713 257.982C465.247 258.805 462.812 256.874 462.375 256.526C460.661 255.165 459.257 252.74 459.947 251.67C460.326 251.081 461.003 251.404 461.888 250.701C463.191 249.663 463.564 247.416 462.856 246.814C462.281 246.321 461.376 247.27 460.427 246.814C459.276 246.264 459.865 244.491 458.973 242.927C457.512 240.376 454.115 241.914 451.503 239.199C449.796 237.426 449.056 234.476 450.03 232.804C450.314 232.317 450.751 231.887 451.371 231.545C455.482 229.278 456.095 232.38 460.098 232.412C468.339 232.482 472.375 234.134 473.867 237.553C474.879 239.87 473.646 243.567 473.045 245.358C472.843 245.953 472.425 247.08 472.077 248.758C471.692 250.594 471.812 251.062 471.59 252.158C471.445 252.924 470.623 257.013 467.713 257.982Z" fill="#111111"/>
<path d="M449.265 243.599C449.265 243.599 452.901 244.941 453.692 243.125C454.482 241.308 453.217 239.801 455.197 238.377C457.177 236.952 461.914 235.452 460.181 233.312C458.448 231.172 453.148 230.305 451.643 232.837C450.137 235.369 449.037 239.725 448.006 239.801C446.975 239.877 447.355 243.156 449.265 243.599Z" fill="white"/>
<path d="M451.769 245.03C450.542 245.03 449.334 244.631 448.993 244.511C447.133 244.036 446.406 241.903 446.507 240.592C446.589 239.497 447.177 239.003 447.759 238.883C448.101 238.516 448.708 237.041 449.113 236.053C449.612 234.831 450.182 233.445 450.827 232.356C451.516 231.197 452.832 230.488 454.539 230.362C456.968 230.178 459.656 231.172 460.914 232.717C461.534 233.476 461.553 234.185 461.465 234.647C461.167 236.154 459.327 237.142 457.55 238.104C456.86 238.478 456.209 238.826 455.76 239.155C454.95 239.737 454.95 240.206 454.957 241.136C454.957 241.795 454.963 242.618 454.577 243.511C454.046 244.694 452.895 245.03 451.769 245.03ZM449.593 242.707C450.738 243.124 452.547 243.378 452.825 242.745C453.053 242.219 453.053 241.719 453.047 241.136C453.04 240.079 453.034 238.763 454.64 237.604C455.197 237.205 455.899 236.825 456.645 236.426C457.701 235.857 459.479 234.901 459.599 234.274C459.618 234.185 459.561 234.065 459.441 233.913C458.587 232.869 456.456 232.128 454.678 232.255C454.059 232.299 452.945 232.501 452.458 233.324C451.883 234.293 451.345 235.61 450.865 236.775C449.967 238.965 449.391 240.371 448.404 240.687C448.379 240.928 448.411 241.402 448.645 241.89C448.765 242.143 449.037 242.574 449.48 242.681C449.518 242.681 449.555 242.694 449.593 242.707Z" fill="#111111"/>
<path d="M433.377 269.523C433.377 269.523 461.439 261.565 488.098 271.397C490.147 283.229 491.557 293.447 492.544 301.531C494.27 315.775 493.195 311.224 495.352 332.02C496.693 344.941 497.047 346.125 495.82 348.404C489.635 359.882 464.709 359.261 455.127 356.83C454.444 356.659 451.636 355.912 447.032 354.754C441.764 353.424 437.438 352.373 434.547 351.683C432.985 350.974 430.873 349.721 429.405 347.467C426.11 342.428 428.311 335.907 429.405 331.552C432.214 320.365 428.526 320.125 429.405 299.714C429.709 292.586 430.607 282.223 433.377 269.523Z" fill="#4C37EE"/>
<path d="M484.708 357.165C484.246 357.165 483.841 356.823 483.772 356.354C483.696 355.835 484.056 355.354 484.575 355.278C485.081 355.202 497.009 353.303 495.434 341.99C495.358 341.471 495.725 340.99 496.244 340.92C496.756 340.844 497.243 341.211 497.312 341.73C499.153 354.924 484.992 357.139 484.853 357.158C484.796 357.158 484.752 357.165 484.708 357.165Z" fill="white"/>
<path d="M452.205 346.238C451.965 346.238 451.725 346.149 451.541 345.966C440.353 334.931 438.051 318.231 437.956 317.522C437.887 317.003 438.253 316.528 438.772 316.458C439.291 316.395 439.771 316.756 439.835 317.275C439.854 317.44 442.156 334.045 452.87 344.611C453.243 344.978 453.249 345.58 452.882 345.953C452.692 346.149 452.452 346.238 452.205 346.238Z" fill="white"/>
<path d="M423.416 254.456C423.435 253.956 423.795 253.538 424.282 253.443L452.003 244.795L449.6 239.078C449.6 239.078 412.063 227.145 394.449 242.364C376.835 257.583 412.24 295.181 432.226 303.892L450.523 267.117L424.2 255.532C423.726 255.405 423.397 254.956 423.416 254.456Z" fill="#4C37EE"/>
<path d="M498.006 187.998C512.914 173.076 512.915 148.881 498.006 133.959C483.098 119.036 458.927 119.036 444.019 133.959C429.111 148.881 429.111 173.076 444.019 187.998C458.927 202.921 483.098 202.921 498.006 187.998Z" fill="white"/>
<path d="M471.027 200.126C449.454 200.126 431.904 182.558 431.904 160.964C431.904 139.37 449.454 121.809 471.027 121.809C492.601 121.809 510.145 139.376 510.145 160.964C510.145 182.558 492.594 200.126 471.027 200.126ZM471.027 123.708C450.504 123.708 433.801 140.421 433.801 160.964C433.801 181.507 450.498 198.227 471.027 198.227C491.551 198.227 508.248 181.514 508.248 160.964C508.248 140.421 491.551 123.708 471.027 123.708Z" fill="#111111"/>
<path d="M488.02 178.004C497.413 168.602 497.413 153.359 488.02 143.956C478.627 134.554 463.398 134.554 454.005 143.956C444.612 153.359 444.612 168.602 454.005 178.004C463.398 187.407 478.627 187.407 488.02 178.004Z" fill="#4C37EE"/>
<path d="M460.681 171.865C460.598 171.865 460.516 171.853 460.427 171.834C459.922 171.695 459.624 171.175 459.764 170.669C461.174 165.522 465.886 161.92 471.224 161.92C476.302 161.92 480.818 165.149 482.469 169.954C482.64 170.447 482.374 170.992 481.881 171.163C481.381 171.327 480.843 171.068 480.673 170.574C479.287 166.535 475.493 163.825 471.224 163.825C466.733 163.825 462.774 166.845 461.591 171.175C461.477 171.593 461.098 171.865 460.681 171.865Z" fill="white"/>
<path d="M463.147 156.893C462.907 156.893 462.66 156.798 462.477 156.615L457.076 151.208C456.702 150.835 456.702 150.233 457.076 149.866C457.449 149.493 458.05 149.493 458.416 149.866L463.818 155.273C464.191 155.646 464.191 156.247 463.818 156.615C463.634 156.805 463.394 156.893 463.147 156.893Z" fill="white"/>
<path d="M463.147 156.893C462.907 156.893 462.66 156.798 462.477 156.615L457.076 151.208C456.702 150.835 456.702 150.233 457.076 149.866C457.449 149.493 458.05 149.493 458.416 149.866L463.818 155.273C464.191 155.646 464.191 156.247 463.818 156.615C463.634 156.805 463.394 156.893 463.147 156.893Z" fill="white"/>
<path d="M457.746 156.893C457.506 156.893 457.259 156.798 457.076 156.615C456.702 156.241 456.702 155.64 457.076 155.273L462.477 149.866C462.85 149.493 463.451 149.493 463.818 149.866C464.191 150.24 464.191 150.841 463.818 151.208L458.416 156.615C458.233 156.805 457.986 156.893 457.746 156.893Z" fill="white"/>
<path d="M484.651 156.893C484.41 156.893 484.164 156.798 483.98 156.615L478.579 151.208C478.206 150.835 478.206 150.233 478.579 149.866C478.952 149.493 479.553 149.493 479.92 149.866L485.321 155.273C485.694 155.646 485.694 156.247 485.321 156.615C485.138 156.805 484.897 156.893 484.651 156.893Z" fill="white"/>
<path d="M479.25 156.893C479.009 156.893 478.763 156.798 478.579 156.615C478.206 156.241 478.206 155.64 478.579 155.273L483.98 149.866C484.354 149.493 484.954 149.493 485.321 149.866C485.694 150.24 485.694 150.841 485.321 151.208L479.92 156.615C479.737 156.805 479.49 156.893 479.25 156.893Z" fill="white"/>
<path d="M342.113 41.624C341.949 41.624 341.784 41.5924 341.626 41.5227C304.115 25.8732 260.836 21.0935 216.481 27.7091C215.792 27.8104 215.147 27.3356 215.046 26.6455C214.945 25.9555 215.419 25.3097 216.108 25.2084C260.918 18.5295 304.659 23.3599 342.6 39.193C343.245 39.4589 343.549 40.2059 343.283 40.8517C343.081 41.3265 342.613 41.6177 342.113 41.624Z" fill="#111111"/>
<path d="M360.182 36.2174C359.986 36.2174 359.784 36.1731 359.601 36.0718C356.381 34.3941 353.036 32.7671 349.665 31.2414C302.471 9.90054 245.372 5.86153 188.875 19.8778C188.191 20.0424 187.508 19.6309 187.344 18.9535C187.173 18.2761 187.591 17.586 188.267 17.4214C245.315 3.27226 303.002 7.36191 350.708 28.937C354.124 30.4817 357.507 32.1277 360.771 33.8244C361.391 34.1472 361.631 34.9133 361.308 35.5337C361.081 35.9705 360.638 36.2174 360.182 36.2174Z" fill="#111111"/>
<path d="M400.027 80.9872C399.521 80.9872 399.104 80.5946 399.079 80.0818C399.053 79.5564 399.458 79.1133 399.983 79.0879L404.543 78.8664C405.068 78.841 405.511 79.2462 405.536 79.7716C405.562 80.2971 405.157 80.7403 404.632 80.7656L400.072 80.9872C400.059 80.9872 400.046 80.9872 400.027 80.9872Z" fill="#111111"/>
<path d="M415.978 80.2152C415.472 80.2152 415.055 79.8227 415.03 79.3099C415.004 78.7844 415.409 78.3413 415.934 78.316L420.488 78.0944C421 78.0754 421.455 78.4742 421.481 78.9997C421.506 79.5251 421.101 79.9683 420.576 79.9936L416.022 80.2152C416.01 80.2152 415.991 80.2152 415.978 80.2152Z" fill="#111111"/>
<path d="M410.836 90.7565C410.337 90.7565 409.919 90.364 409.888 89.8575L409.641 85.2994C409.616 84.7739 410.014 84.3308 410.539 84.2991C411.07 84.2865 411.513 84.6727 411.538 85.1981L411.785 89.7562C411.81 90.2817 411.412 90.7248 410.887 90.7565C410.868 90.7565 410.849 90.7565 410.836 90.7565Z" fill="#111111"/>
<path d="M409.976 74.79C409.476 74.79 409.059 74.3975 409.027 73.8911L408.781 69.333C408.756 68.8075 409.154 68.3643 409.679 68.3327C410.197 68.3137 410.647 68.7062 410.678 69.2317L410.925 73.7898C410.95 74.3152 410.552 74.7584 410.027 74.79C410.008 74.79 409.995 74.79 409.976 74.79Z" fill="#111111"/>
<path d="M368.714 464.973C368.543 464.973 368.373 464.929 368.215 464.834L364.97 462.827C364.521 462.549 364.388 461.966 364.66 461.523C364.939 461.074 365.52 460.941 365.963 461.213L369.208 463.22C369.657 463.498 369.789 464.081 369.517 464.524C369.34 464.815 369.03 464.973 368.714 464.973Z" fill="#111111"/>
<path d="M380.067 472.007C379.896 472.007 379.726 471.962 379.567 471.867L376.323 469.861C375.874 469.582 375.741 469 376.013 468.556C376.291 468.107 376.873 467.974 377.316 468.246L380.56 470.253C381.009 470.532 381.142 471.114 380.87 471.557C380.693 471.848 380.383 472.007 380.067 472.007Z" fill="#111111"/>
<path d="M368.297 474.817C368.126 474.817 367.955 474.773 367.804 474.678C367.355 474.406 367.216 473.817 367.487 473.374L369.473 470.114C369.745 469.664 370.334 469.525 370.776 469.797C371.225 470.069 371.364 470.658 371.092 471.101L369.107 474.362C368.93 474.659 368.613 474.817 368.297 474.817Z" fill="#111111"/>
<path d="M375.254 463.409C375.083 463.409 374.913 463.365 374.761 463.27C374.312 462.998 374.173 462.409 374.445 461.966L376.431 458.706C376.702 458.256 377.291 458.117 377.733 458.389C378.182 458.661 378.321 459.25 378.049 459.693L376.064 462.953C375.887 463.251 375.577 463.409 375.254 463.409Z" fill="#111111"/>
<path d="M123.2 65.9329C123.105 65.9329 123.01 65.9203 122.915 65.8886L119.38 64.7808C118.88 64.6225 118.602 64.0907 118.76 63.5906C118.918 63.0905 119.443 62.8119 119.949 62.9702L123.484 64.078C123.984 64.2363 124.262 64.7681 124.104 65.2682C123.978 65.6734 123.605 65.9329 123.2 65.9329Z" fill="#111111"/>
<path d="M110.816 62.0599C110.722 62.0599 110.627 62.0472 110.532 62.0156L106.996 60.9077C106.497 60.7494 106.219 60.2177 106.377 59.7175C106.535 59.2174 107.066 58.9388 107.566 59.0971L111.101 60.205C111.601 60.3633 111.879 60.895 111.721 61.3952C111.594 61.8003 111.221 62.0599 110.816 62.0599Z" fill="#111111"/>
<path d="M116.597 59.0079C116.502 59.0079 116.414 58.9952 116.319 58.9636C115.819 58.8116 115.535 58.2798 115.686 57.7797L116.774 54.2345C116.926 53.7344 117.457 53.4495 117.957 53.6014C118.456 53.7534 118.741 54.2851 118.589 54.7853L117.501 58.3305C117.375 58.742 117.002 59.0079 116.597 59.0079Z" fill="#111111"/>
<path d="M112.796 71.4278C112.701 71.4278 112.613 71.4151 112.518 71.3835C112.018 71.2315 111.733 70.6998 111.885 70.1996L112.973 66.6544C113.125 66.1543 113.656 65.8694 114.156 66.0214C114.655 66.1733 114.94 66.7051 114.788 67.2052L113.7 70.7504C113.574 71.1619 113.201 71.4278 112.796 71.4278Z" fill="#111111"/>
<path d="M175.119 27.6447C174.081 27.6447 173.076 27.3218 172.222 26.695C171.153 25.9164 170.451 24.7705 170.249 23.46C169.825 20.7631 171.672 18.2245 174.366 17.8004C177.054 17.3699 179.596 19.2248 180.02 21.9217C180.444 24.6186 178.597 27.1572 175.903 27.5813C175.637 27.6257 175.378 27.6447 175.119 27.6447ZM175.131 19.6426C174.973 19.6426 174.815 19.6553 174.657 19.6806C173 19.9402 171.861 21.5102 172.121 23.1688C172.247 23.9728 172.677 24.6819 173.341 25.163C173.999 25.6441 174.802 25.8341 175.612 25.7075C177.269 25.4479 178.407 23.8779 178.148 22.2192C177.901 20.7188 176.605 19.6426 175.131 19.6426Z" fill="#111111"/>
</svg>
