<svg width="21" height="20" viewBox="0 0 21 20" fill="none" xmlns="http://www.w3.org/2000/svg">
<path d="M18.6713 8.36824H18.0001V8.33366H10.5001V11.667H15.2097C14.5226 13.6074 12.6763 15.0003 10.5001 15.0003C7.73883 15.0003 5.50008 12.7616 5.50008 10.0003C5.50008 7.23907 7.73883 5.00032 10.5001 5.00032C11.7747 5.00032 12.9342 5.48116 13.8172 6.26657L16.1742 3.90949C14.6859 2.52241 12.6951 1.66699 10.5001 1.66699C5.898 1.66699 2.16675 5.39824 2.16675 10.0003C2.16675 14.6024 5.898 18.3337 10.5001 18.3337C15.1022 18.3337 18.8334 14.6024 18.8334 10.0003C18.8334 9.44157 18.7759 8.89616 18.6713 8.36824Z" fill="#FFC107"/>
<path d="M3.12744 6.12158L5.86536 8.12949C6.60619 6.29533 8.40036 5.00033 10.4999 5.00033C11.7745 5.00033 12.9341 5.48116 13.817 6.26658L16.1741 3.90949C14.6858 2.52241 12.6949 1.66699 10.4999 1.66699C7.29911 1.66699 4.52327 3.47408 3.12744 6.12158Z" fill="#FF3D00"/>
<path d="M10.5 18.3336C12.6525 18.3336 14.6084 17.5099 16.0871 16.1703L13.508 13.9878C12.6713 14.6215 11.6313 15.0003 10.5 15.0003C8.33255 15.0003 6.49213 13.6182 5.7988 11.6895L3.0813 13.7832C4.46047 16.482 7.2613 18.3336 10.5 18.3336Z" fill="#4CAF50"/>
<path d="M18.6712 8.36759H18V8.33301H10.5V11.6663H15.2096C14.8796 12.5984 14.28 13.4022 13.5067 13.9876C13.5071 13.9872 13.5075 13.9872 13.5079 13.9868L16.0871 16.1693C15.9046 16.3351 18.8333 14.1663 18.8333 9.99967C18.8333 9.44092 18.7758 8.89551 18.6712 8.36759Z" fill="#1976D2"/>
</svg>
