<svg width="20" height="20" viewBox="0 0 20 20" fill="none" xmlns="http://www.w3.org/2000/svg">
<path d="M1 1L19 19" stroke="#111111" stroke-opacity="0.4" stroke-width="1.5" stroke-linecap="round" stroke-linejoin="round"/>
<path d="M8.49996 8.677C8.16302 9.05851 7.98422 9.55413 7.99998 10.0629C8.01575 10.5716 8.2249 11.0552 8.58481 11.4151C8.94472 11.7751 9.42832 11.9842 9.93708 12C10.4458 12.0157 10.9414 11.8369 11.323 11.5" stroke="#111111" stroke-opacity="0.4" stroke-width="1.5" stroke-linecap="round" stroke-linejoin="round"/>
<path d="M5.362 5.56104C3.68 6.74004 2.279 8.42004 1 10C2.889 12.991 6.282 16 10 16C11.55 16 13.043 15.477 14.395 14.65" stroke="#111111" stroke-opacity="0.4" stroke-width="1.5" stroke-linecap="round" stroke-linejoin="round"/>
<path d="M10 4C14.008 4 16.701 7.158 19 10C18.6705 10.5208 18.3105 11.0216 17.922 11.5" stroke="#111111" stroke-opacity="0.4" stroke-width="1.5" stroke-linecap="round" stroke-linejoin="round"/>
</svg>
