<svg width="128" height="32" viewBox="0 0 128 32" fill="none" xmlns="http://www.w3.org/2000/svg">
<path d="M13.2448 10.8915C13.8175 6.96496 14.1038 5.00169 14.4755 4.56397C15.2742 3.62342 16.7258 3.62342 17.5245 4.56397C17.8962 5.00169 18.1825 6.96496 18.7552 10.8915C18.8357 11.4438 18.876 11.7199 18.9734 11.9529C19.1762 12.438 19.562 12.8238 20.0471 13.0266C20.2801 13.124 20.5562 13.1643 21.1085 13.2448C25.035 13.8175 26.9983 14.1038 27.436 14.4755C28.3766 15.2742 28.3766 16.7258 27.436 17.5245C26.9983 17.8962 25.035 18.1825 21.1085 18.7552C20.5562 18.8357 20.2801 18.876 20.0471 18.9734C19.562 19.1762 19.1762 19.562 18.9734 20.0471C18.876 20.2801 18.8357 20.5562 18.7552 21.1085C18.1825 25.035 17.8962 26.9983 17.5245 27.436C16.7258 28.3766 15.2742 28.3766 14.4755 27.436C14.1038 26.9983 13.8175 25.035 13.2448 21.1085C13.1643 20.5562 13.124 20.2801 13.0266 20.0471C12.8238 19.562 12.438 19.1762 11.9529 18.9734C11.7199 18.876 11.4438 18.8357 10.8915 18.7552C6.96496 18.1825 5.00169 17.8962 4.56397 17.5245C3.62342 16.7258 3.62342 15.2742 4.56397 14.4755C5.00169 14.1038 6.96496 13.8175 10.8915 13.2448C11.4438 13.1643 11.7199 13.124 11.9529 13.0266C12.438 12.8238 12.8238 12.438 13.0266 11.9529C13.124 11.7199 13.1643 11.4438 13.2448 10.8915Z" fill="#23FFCA"/>
<path d="M47.584 24.168C46.352 24.168 45.248 23.968 44.272 23.568C43.296 23.168 42.512 22.576 41.92 21.792C41.344 21.008 41.04 20.064 41.008 18.96H45.376C45.44 19.584 45.656 20.064 46.024 20.4C46.392 20.72 46.872 20.88 47.464 20.88C48.072 20.88 48.552 20.744 48.904 20.472C49.256 20.184 49.432 19.792 49.432 19.296C49.432 18.88 49.288 18.536 49 18.264C48.728 17.992 48.384 17.768 47.968 17.592C47.568 17.416 46.992 17.216 46.24 16.992C45.152 16.656 44.264 16.32 43.576 15.984C42.888 15.648 42.296 15.152 41.8 14.496C41.304 13.84 41.056 12.984 41.056 11.928C41.056 10.36 41.624 9.136 42.76 8.256C43.896 7.36 45.376 6.912 47.2 6.912C49.056 6.912 50.552 7.36 51.688 8.256C52.824 9.136 53.432 10.368 53.512 11.952H49.072C49.04 11.408 48.84 10.984 48.472 10.68C48.104 10.36 47.632 10.2 47.056 10.2C46.56 10.2 46.16 10.336 45.856 10.608C45.552 10.864 45.4 11.24 45.4 11.736C45.4 12.28 45.656 12.704 46.168 13.008C46.68 13.312 47.48 13.64 48.568 13.992C49.656 14.36 50.536 14.712 51.208 15.048C51.896 15.384 52.488 15.872 52.984 16.512C53.48 17.152 53.728 17.976 53.728 18.984C53.728 19.944 53.48 20.816 52.984 21.6C52.504 22.384 51.8 23.008 50.872 23.472C49.944 23.936 48.848 24.168 47.584 24.168ZM63.7176 20.52V24H61.6296C60.1416 24 58.9816 23.64 58.1496 22.92C57.3176 22.184 56.9016 20.992 56.9016 19.344V14.016H55.2696V10.608H56.9016V7.344H61.0056V10.608H63.6936V14.016H61.0056V19.392C61.0056 19.792 61.1016 20.08 61.2936 20.256C61.4856 20.432 61.8056 20.52 62.2536 20.52H63.7176ZM79.2276 10.608V24H75.1236V22.176C74.7076 22.768 74.1396 23.248 73.4196 23.616C72.7156 23.968 71.9316 24.144 71.0676 24.144C70.0436 24.144 69.1396 23.92 68.3556 23.472C67.5716 23.008 66.9636 22.344 66.5316 21.48C66.0996 20.616 65.8836 19.6 65.8836 18.432V10.608H69.9636V17.88C69.9636 18.776 70.1956 19.472 70.6596 19.968C71.1236 20.464 71.7476 20.712 72.5316 20.712C73.3316 20.712 73.9636 20.464 74.4276 19.968C74.8916 19.472 75.1236 18.776 75.1236 17.88V10.608H79.2276ZM81.3595 17.28C81.3595 15.904 81.6155 14.696 82.1275 13.656C82.6555 12.616 83.3675 11.816 84.2635 11.256C85.1595 10.696 86.1595 10.416 87.2635 10.416C88.1435 10.416 88.9435 10.6 89.6635 10.968C90.3995 11.336 90.9755 11.832 91.3915 12.456V6.24H95.4955V24H91.3915V22.08C91.0075 22.72 90.4555 23.232 89.7355 23.616C89.0315 24 88.2075 24.192 87.2635 24.192C86.1595 24.192 85.1595 23.912 84.2635 23.352C83.3675 22.776 82.6555 21.968 82.1275 20.928C81.6155 19.872 81.3595 18.656 81.3595 17.28ZM91.3915 17.304C91.3915 16.28 91.1035 15.472 90.5275 14.88C89.9675 14.288 89.2795 13.992 88.4635 13.992C87.6475 13.992 86.9515 14.288 86.3755 14.88C85.8155 15.456 85.5355 16.256 85.5355 17.28C85.5355 18.304 85.8155 19.12 86.3755 19.728C86.9515 20.32 87.6475 20.616 88.4635 20.616C89.2795 20.616 89.9675 20.32 90.5275 19.728C91.1035 19.136 91.3915 18.328 91.3915 17.304ZM111.089 17.088C111.089 17.472 111.065 17.872 111.017 18.288H101.729C101.793 19.12 102.057 19.76 102.521 20.208C103.001 20.64 103.585 20.856 104.273 20.856C105.297 20.856 106.009 20.424 106.409 19.56H110.777C110.553 20.44 110.145 21.232 109.553 21.936C108.977 22.64 108.249 23.192 107.369 23.592C106.489 23.992 105.505 24.192 104.417 24.192C103.105 24.192 101.937 23.912 100.913 23.352C99.8886 22.792 99.0886 21.992 98.5126 20.952C97.9366 19.912 97.6486 18.696 97.6486 17.304C97.6486 15.912 97.9286 14.696 98.4886 13.656C99.0646 12.616 99.8646 11.816 100.889 11.256C101.913 10.696 103.089 10.416 104.417 10.416C105.713 10.416 106.865 10.688 107.873 11.232C108.881 11.776 109.665 12.552 110.225 13.56C110.801 14.568 111.089 15.744 111.089 17.088ZM106.889 16.008C106.889 15.304 106.649 14.744 106.169 14.328C105.689 13.912 105.089 13.704 104.369 13.704C103.681 13.704 103.097 13.904 102.617 14.304C102.153 14.704 101.865 15.272 101.753 16.008H106.889ZM121.414 10.464C122.982 10.464 124.23 10.976 125.158 12C126.102 13.008 126.574 14.4 126.574 16.176V24H122.494V16.728C122.494 15.832 122.262 15.136 121.798 14.64C121.334 14.144 120.71 13.896 119.926 13.896C119.142 13.896 118.518 14.144 118.054 14.64C117.59 15.136 117.358 15.832 117.358 16.728V24H113.254V10.608H117.358V12.384C117.774 11.792 118.334 11.328 119.038 10.992C119.742 10.64 120.534 10.464 121.414 10.464Z" fill="white"/>
</svg>
