<svg width="12" height="13" viewBox="0 0 12 13" fill="none" xmlns="http://www.w3.org/2000/svg">
<path d="M4.49951 3.1459C4.66653 2.23918 4.75004 1.78582 4.81473 1.64222C5.27487 0.620867 6.72513 0.620867 7.18527 1.64222C7.24996 1.78582 7.33347 2.23918 7.50049 3.1459C7.5368 3.343 7.55495 3.44155 7.58151 3.52328C7.75555 4.05889 8.25467 4.42152 8.81784 4.42153C8.90378 4.42153 9.00312 4.40834 9.20179 4.38197C10.1157 4.26062 10.5727 4.19994 10.7293 4.2171C11.8428 4.3391 12.291 5.71838 11.4618 6.47161C11.3452 6.57751 10.9399 6.79703 10.1291 7.23607C9.95291 7.3315 9.86479 7.37922 9.79527 7.42974C9.33966 7.76077 9.14901 8.34752 9.32303 8.88314C9.34959 8.96487 9.39283 9.05527 9.47931 9.23607C9.87714 10.0678 10.0761 10.4837 10.1081 10.6379C10.3362 11.7346 9.16292 12.587 8.19032 12.0312C8.05358 11.9531 7.71954 11.6354 7.05146 11C6.90624 10.8619 6.83362 10.7928 6.7641 10.7423C6.30847 10.4113 5.69153 10.4113 5.2359 10.7423C5.16638 10.7928 5.09376 10.8619 4.94854 11C4.28046 11.6354 3.94642 11.9531 3.80968 12.0312C2.83708 12.587 1.6638 11.7346 1.89187 10.6379C1.92394 10.4837 2.12286 10.0678 2.52069 9.23607C2.60717 9.05527 2.65041 8.96487 2.67697 8.88314C2.85099 8.34752 2.66034 7.76077 2.20473 7.42974C2.13521 7.37922 2.04709 7.3315 1.87085 7.23607C1.06012 6.79703 0.654756 6.57751 0.538179 6.47161C-0.290995 5.71838 0.15716 4.3391 1.27072 4.2171C1.42727 4.19994 1.88425 4.26062 2.79821 4.38197C2.99688 4.40834 3.09622 4.42153 3.18216 4.42153C3.74533 4.42152 4.24445 4.05889 4.41849 3.52328C4.44505 3.44155 4.4632 3.343 4.49951 3.1459Z" fill="#FB6816"/>
</svg>
