<svg width="14" height="15" viewBox="0 0 14 15" fill="none" xmlns="http://www.w3.org/2000/svg">
<path d="M5.37447 3.82472C5.63577 2.40614 5.76643 1.69685 5.89795 1.48666C6.40722 0.67272 7.59278 0.67272 8.10205 1.48666C8.23357 1.69685 8.36423 2.40614 8.62553 3.82472C8.68232 4.13303 8.71072 4.28718 8.76172 4.41177C8.94839 4.86778 9.37683 5.17906 9.86821 5.21568C10.0025 5.22569 10.1578 5.20506 10.4686 5.1638C11.8985 4.97395 12.6135 4.87902 12.854 4.93915C13.7855 5.17198 14.1518 6.29951 13.5351 7.03538C13.3758 7.22542 12.7416 7.56886 11.4732 8.25574C11.1976 8.40502 11.0597 8.47966 10.957 8.56667C10.581 8.88512 10.4174 9.38878 10.5344 9.86743C10.5663 9.9982 10.634 10.1396 10.7692 10.4224C11.3917 11.7237 11.7029 12.3743 11.72 12.6216C11.7864 13.5795 10.8273 14.2763 9.93687 13.9172C9.70691 13.8244 9.1843 13.3274 8.13908 12.3333C7.91192 12.1173 7.79834 12.0093 7.68385 11.9384C7.26479 11.6793 6.73521 11.6793 6.31615 11.9384C6.20166 12.0093 6.08808 12.1173 5.86092 12.3333C4.81569 13.3274 4.29309 13.8244 4.06313 13.9172C3.1727 14.2763 2.21356 13.5795 2.27997 12.6216C2.29712 12.3743 2.60833 11.7237 3.23075 10.4224C3.36602 10.1396 3.43366 9.9982 3.46563 9.86743C3.58265 9.38878 3.419 8.88512 3.04299 8.56667C2.94026 8.47966 2.80242 8.40502 2.52676 8.25574C1.25836 7.56886 0.624157 7.22542 0.46489 7.03538C-0.151835 6.29951 0.214523 5.17198 1.146 4.93915C1.38655 4.87902 2.1015 4.97395 3.53139 5.1638C3.84216 5.20506 3.99754 5.22569 4.13179 5.21568C4.62317 5.17906 5.05161 4.86778 5.23828 4.41177C5.28928 4.28718 5.31768 4.13303 5.37447 3.82472Z" fill="#FFE70D"/>
</svg>
