<svg width="36" height="36" viewBox="0 0 36 36" fill="none" xmlns="http://www.w3.org/2000/svg">
<path d="M14.3426 8.60563C14.9305 5.41382 15.2245 3.81792 15.5204 3.34497C16.6662 1.51362 19.3338 1.51362 20.4796 3.34497C20.7755 3.81792 21.0695 5.41382 21.6574 8.60563C21.7852 9.29931 21.8491 9.64615 21.9639 9.92649C22.3839 10.9525 23.3479 11.6529 24.4535 11.7353C24.7555 11.7578 25.1051 11.7114 25.8044 11.6185C29.0216 11.1914 30.6303 10.9778 31.1715 11.1131C33.2673 11.637 34.0916 14.1739 32.704 15.8296C32.3457 16.2572 30.9187 17.0299 28.0648 18.5754C27.4445 18.9113 27.1344 19.0792 26.9033 19.275C26.0573 19.9915 25.689 21.1248 25.9523 22.2017C26.0243 22.496 26.1764 22.8141 26.4808 23.4504C27.8813 26.3782 28.5815 27.8421 28.6201 28.3987C28.7695 30.5538 26.6114 32.1217 24.608 31.3137C24.0906 31.105 22.9147 29.9866 20.5629 27.75C20.0518 27.2639 19.7963 27.0209 19.5387 26.8615C18.5958 26.2783 17.4042 26.2783 16.4613 26.8615C16.2037 27.0209 15.9482 27.2639 15.4371 27.75C13.0853 29.9866 11.9094 31.105 11.392 31.3137C9.38858 32.1217 7.23052 30.5538 7.37994 28.3987C7.41852 27.8421 8.11875 26.3782 9.51919 23.4504C9.82355 22.8141 9.97573 22.496 10.0477 22.2017C10.311 21.1248 9.94275 19.9915 9.09673 19.275C8.86558 19.0792 8.55545 18.9113 7.93521 18.5754C5.0813 17.0299 3.65435 16.2572 3.29599 15.8296C1.90837 14.1739 2.73267 11.637 4.82848 11.1131C5.36972 10.9778 6.97836 11.1914 10.1956 11.6185C10.8948 11.7114 11.2445 11.7578 11.5465 11.7353C12.6521 11.6529 13.6161 10.9525 14.0361 9.92649C14.1509 9.64615 14.2148 9.29931 14.3426 8.60563Z" fill="#4C37EE"/>
</svg>
