<svg width="36" height="36" viewBox="0 0 36 36" fill="none" xmlns="http://www.w3.org/2000/svg">
<path d="M3 30V28.5C3 25.7152 4.10625 23.0445 6.07538 21.0754C8.04451 19.1062 10.7152 18 13.5 18" stroke="white" stroke-width="2.5" stroke-linecap="round" stroke-linejoin="round"/>
<path d="M23.706 18.4695C23.9335 18.2199 24.2105 18.0205 24.5194 17.884C24.8283 17.7476 25.1623 17.6771 25.5 17.6771C25.8377 17.6771 26.1717 17.7476 26.4806 17.884C26.7895 18.0205 27.0666 18.2199 27.294 18.4695C27.7815 19.005 28.479 19.2945 29.202 19.26C29.5395 19.2442 29.8766 19.299 30.1917 19.421C30.5068 19.5429 30.7929 19.7293 31.0318 19.9682C31.2707 20.2071 31.4571 20.4933 31.5791 20.8084C31.701 21.1235 31.7559 21.4605 31.74 21.798C31.7055 22.5195 31.995 23.2185 32.529 23.706C33.5865 24.669 33.5865 26.331 32.529 27.294C31.995 27.7815 31.7055 28.479 31.74 29.202C31.7559 29.5395 31.701 29.8766 31.5791 30.1917C31.4571 30.5068 31.2707 30.7929 31.0318 31.0318C30.7929 31.2707 30.5068 31.4571 30.1917 31.5791C29.8766 31.701 29.5395 31.7559 29.202 31.74C28.8456 31.7232 28.4897 31.7851 28.1599 31.9215C27.8302 32.0579 27.5345 32.2653 27.294 32.529C27.0666 32.7787 26.7895 32.9781 26.4806 33.1145C26.1717 33.251 25.8377 33.3214 25.5 33.3214C25.1623 33.3214 24.8283 33.251 24.5194 33.1145C24.2105 32.9781 23.9335 32.7787 23.706 32.529C23.4656 32.2653 23.1699 32.0579 22.8401 31.9215C22.5103 31.7851 22.1545 31.7232 21.798 31.74C21.4605 31.7559 21.1235 31.701 20.8084 31.5791C20.4933 31.4571 20.2071 31.2707 19.9682 31.0318C19.7293 30.7929 19.5429 30.5068 19.421 30.1917C19.299 29.8766 19.2442 29.5395 19.26 29.202C19.2767 28.8454 19.2145 28.4896 19.0779 28.1598C18.9412 27.83 18.7335 27.5344 18.4695 27.294C18.2199 27.0666 18.0205 26.7895 17.884 26.4806C17.7476 26.1717 17.6771 25.8377 17.6771 25.5C17.6771 25.1623 17.7476 24.8283 17.884 24.5194C18.0205 24.2105 18.2199 23.9335 18.4695 23.706C19.005 23.2185 19.2945 22.521 19.26 21.798C19.2442 21.4605 19.299 21.1235 19.421 20.8084C19.5429 20.4933 19.7293 20.2071 19.9682 19.9682C20.2071 19.7293 20.4933 19.5429 20.8084 19.421C21.1235 19.299 21.4605 19.2442 21.798 19.26C22.5195 19.2945 23.2185 19.005 23.706 18.4695V18.4695Z" stroke="white" stroke-width="2.5"/>
<path d="M23.046 25.5L24.681 27.135L27.954 23.865" stroke="white" stroke-width="2.5" stroke-linecap="round" stroke-linejoin="round"/>
<path d="M13.5 18C15.0913 18 16.6174 17.3679 17.7426 16.2426C18.8679 15.1174 19.5 13.5913 19.5 12C19.5 10.4087 18.8679 8.88258 17.7426 7.75736C16.6174 6.63214 15.0913 6 13.5 6C11.9087 6 10.3826 6.63214 9.25736 7.75736C8.13214 8.88258 7.5 10.4087 7.5 12C7.5 13.5913 8.13214 15.1174 9.25736 16.2426C10.3826 17.3679 11.9087 18 13.5 18V18Z" stroke="white" stroke-width="2.5" stroke-linecap="round" stroke-linejoin="round"/>
</svg>
