<svg width="24" height="24" viewBox="0 0 24 24" fill="none" xmlns="http://www.w3.org/2000/svg">
<path d="M14.5005 6.16663C14.5005 4.78591 13.3812 3.66663 12.0005 3.66663C10.6198 3.66663 9.50049 4.78591 9.50049 6.16663V11.1666C9.50049 12.5473 10.6198 13.6666 12.0005 13.6666C13.3812 13.6666 14.5005 12.5473 14.5005 11.1666V6.16663Z" stroke="#4C37EE" stroke-width="1.5"/>
<path d="M6.16699 10.3333V11.1666C6.16699 11.9326 6.31788 12.6912 6.61103 13.3989C6.90418 14.1066 7.33386 14.7497 7.87554 15.2914C8.41721 15.833 9.06027 16.2627 9.76801 16.5559C10.4757 16.849 11.2343 16.9999 12.0003 16.9999C12.7664 16.9999 13.5249 16.849 14.2326 16.5559C14.9404 16.2627 15.5834 15.833 16.1251 15.2914C16.6668 14.7497 17.0965 14.1066 17.3896 13.3989C17.6828 12.6912 17.8337 11.9326 17.8337 11.1666V10.3333" stroke="#4C37EE" stroke-width="1.5" stroke-linecap="round" stroke-linejoin="round"/>
<path d="M12.0005 20.3333H14.5005M12.0005 17V20.3333V17ZM12.0005 20.3333H9.50049H12.0005Z" stroke="#4C37EE" stroke-width="1.5" stroke-linecap="round" stroke-linejoin="round"/>
</svg>
